<mxfile host="app.diagrams.net" agent="Mozilla/5.0 (Windows NT 10.0; Win64; x64) AppleWebKit/537.36 (KHTML, like Gecko) Chrome/125.0.0.0 Safari/537.36" version="24.7.16">
  <diagram id="mHFnT_LbZJntr-yN_MIP" name="Page-1">
    <mxGraphModel dx="3056" dy="3348" grid="1" gridSize="10" guides="1" tooltips="1" connect="1" arrows="1" fold="1" page="1" pageScale="1" pageWidth="850" pageHeight="1100" math="0" shadow="0">
      <root>
        <mxCell id="0" />
        <mxCell id="1" parent="0" />
        <mxCell id="c7biSZGZnNbLbAdj1jw6-103" value="" style="group" parent="1" connectable="0" vertex="1">
          <mxGeometry x="240" y="-1040" width="80" height="960" as="geometry" />
        </mxCell>
        <mxCell id="c7biSZGZnNbLbAdj1jw6-76" value="" style="rounded=0;whiteSpace=wrap;html=1;shadow=0;glass=0;sketch=0;fillColor=#F0F5F7;" parent="c7biSZGZnNbLbAdj1jw6-103" vertex="1">
          <mxGeometry width="80" height="960" as="geometry" />
        </mxCell>
        <mxCell id="c7biSZGZnNbLbAdj1jw6-77" value="ID/EX" style="swimlane;fillColor=#25607D;strokeColor=#9673a6;shadow=0;glass=0;sketch=0;rounded=0;fontColor=#F0F5F7;" parent="c7biSZGZnNbLbAdj1jw6-103" vertex="1">
          <mxGeometry width="80" height="960" as="geometry" />
        </mxCell>
        <mxCell id="c7biSZGZnNbLbAdj1jw6-98" value="Rd" style="text;html=1;align=center;verticalAlign=middle;resizable=0;points=[];autosize=1;strokeColor=none;fillColor=none;" parent="c7biSZGZnNbLbAdj1jw6-77" vertex="1">
          <mxGeometry x="30" y="850" width="30" height="20" as="geometry" />
        </mxCell>
        <mxCell id="c7biSZGZnNbLbAdj1jw6-84" value="Imm" style="text;html=1;align=center;verticalAlign=middle;resizable=0;points=[];autosize=1;strokeColor=none;fillColor=none;" parent="c7biSZGZnNbLbAdj1jw6-77" vertex="1">
          <mxGeometry x="20" y="670" width="40" height="20" as="geometry" />
        </mxCell>
        <mxCell id="c7biSZGZnNbLbAdj1jw6-101" value="Shamt" style="text;html=1;align=center;verticalAlign=middle;resizable=0;points=[];autosize=1;strokeColor=none;fillColor=none;" parent="c7biSZGZnNbLbAdj1jw6-77" vertex="1">
          <mxGeometry x="20" y="550" width="50" height="20" as="geometry" />
        </mxCell>
        <mxCell id="c7biSZGZnNbLbAdj1jw6-94" value="Movn" style="text;html=1;align=center;verticalAlign=middle;resizable=0;points=[];autosize=1;strokeColor=none;fillColor=none;" parent="c7biSZGZnNbLbAdj1jw6-77" vertex="1">
          <mxGeometry x="20" y="160" width="40" height="20" as="geometry" />
        </mxCell>
        <mxCell id="c7biSZGZnNbLbAdj1jw6-86" value="ALUOp" style="text;html=1;align=center;verticalAlign=middle;resizable=0;points=[];autosize=1;strokeColor=none;fillColor=none;" parent="c7biSZGZnNbLbAdj1jw6-77" vertex="1">
          <mxGeometry x="15" y="240" width="50" height="20" as="geometry" />
        </mxCell>
        <mxCell id="c7biSZGZnNbLbAdj1jw6-90" value="RegWrite" style="text;html=1;align=center;verticalAlign=middle;resizable=0;points=[];autosize=1;strokeColor=none;fillColor=none;" parent="c7biSZGZnNbLbAdj1jw6-77" vertex="1">
          <mxGeometry x="5" y="130" width="70" height="20" as="geometry" />
        </mxCell>
        <mxCell id="xT7GirZl_erP_Nx4-y1J-119" value="Rst" style="text;html=1;align=center;verticalAlign=middle;resizable=0;points=[];autosize=1;strokeColor=none;fillColor=none;" parent="c7biSZGZnNbLbAdj1jw6-77" vertex="1">
          <mxGeometry x="25" y="50" width="30" height="20" as="geometry" />
        </mxCell>
        <mxCell id="xT7GirZl_erP_Nx4-y1J-128" value="MemRead" style="text;html=1;align=center;verticalAlign=middle;resizable=0;points=[];autosize=1;strokeColor=none;fillColor=none;" parent="c7biSZGZnNbLbAdj1jw6-77" vertex="1">
          <mxGeometry x="5" y="80" width="70" height="20" as="geometry" />
        </mxCell>
        <mxCell id="c7biSZGZnNbLbAdj1jw6-96" value="Clock" style="text;html=1;align=center;verticalAlign=middle;resizable=0;points=[];autosize=1;strokeColor=none;fillColor=none;" parent="c7biSZGZnNbLbAdj1jw6-103" vertex="1">
          <mxGeometry x="20" y="920" width="50" height="20" as="geometry" />
        </mxCell>
        <mxCell id="c7biSZGZnNbLbAdj1jw6-83" value="Read_Rs" style="text;html=1;align=center;verticalAlign=middle;resizable=0;points=[];autosize=1;strokeColor=none;fillColor=none;" parent="c7biSZGZnNbLbAdj1jw6-103" vertex="1">
          <mxGeometry x="10" y="360" width="70" height="20" as="geometry" />
        </mxCell>
        <mxCell id="c7biSZGZnNbLbAdj1jw6-82" value="Read_Rt" style="text;html=1;align=center;verticalAlign=middle;resizable=0;points=[];autosize=1;strokeColor=none;fillColor=none;" parent="c7biSZGZnNbLbAdj1jw6-103" vertex="1">
          <mxGeometry x="10" y="420" width="60" height="20" as="geometry" />
        </mxCell>
        <mxCell id="c7biSZGZnNbLbAdj1jw6-87" value="ALUSrc" style="text;html=1;align=center;verticalAlign=middle;resizable=0;points=[];autosize=1;strokeColor=none;fillColor=none;" parent="c7biSZGZnNbLbAdj1jw6-103" vertex="1">
          <mxGeometry x="15" y="270" width="60" height="20" as="geometry" />
        </mxCell>
        <mxCell id="c7biSZGZnNbLbAdj1jw6-92" value="MemWrite" style="text;html=1;align=center;verticalAlign=middle;resizable=0;points=[];autosize=1;strokeColor=none;fillColor=none;" parent="c7biSZGZnNbLbAdj1jw6-103" vertex="1">
          <mxGeometry x="5" y="210" width="70" height="20" as="geometry" />
        </mxCell>
        <mxCell id="c7biSZGZnNbLbAdj1jw6-88" value="MemtoReg" style="text;html=1;align=center;verticalAlign=middle;resizable=0;points=[];autosize=1;strokeColor=none;fillColor=none;" parent="c7biSZGZnNbLbAdj1jw6-103" vertex="1">
          <mxGeometry x="5" y="190" width="70" height="20" as="geometry" />
        </mxCell>
        <mxCell id="c7biSZGZnNbLbAdj1jw6-95" value="Halt" style="text;html=1;align=center;verticalAlign=middle;resizable=0;points=[];autosize=1;strokeColor=none;fillColor=none;" parent="c7biSZGZnNbLbAdj1jw6-103" vertex="1">
          <mxGeometry x="15" y="110" width="40" height="20" as="geometry" />
        </mxCell>
        <mxCell id="xT7GirZl_erP_Nx4-y1J-118" value="WE" style="text;html=1;align=center;verticalAlign=middle;resizable=0;points=[];autosize=1;strokeColor=none;fillColor=none;" parent="c7biSZGZnNbLbAdj1jw6-103" vertex="1">
          <mxGeometry x="25" y="30" width="30" height="20" as="geometry" />
        </mxCell>
        <mxCell id="xT7GirZl_erP_Nx4-y1J-130" value="Rt" style="text;html=1;align=center;verticalAlign=middle;resizable=0;points=[];autosize=1;strokeColor=none;fillColor=none;" parent="c7biSZGZnNbLbAdj1jw6-103" vertex="1">
          <mxGeometry x="20" y="780" width="30" height="20" as="geometry" />
        </mxCell>
        <mxCell id="xT7GirZl_erP_Nx4-y1J-131" value="Rs" style="text;html=1;align=center;verticalAlign=middle;resizable=0;points=[];autosize=1;strokeColor=none;fillColor=none;" parent="c7biSZGZnNbLbAdj1jw6-103" vertex="1">
          <mxGeometry x="20" y="810" width="30" height="20" as="geometry" />
        </mxCell>
        <mxCell id="c7biSZGZnNbLbAdj1jw6-74" value="" style="group" parent="1" connectable="0" vertex="1">
          <mxGeometry x="-280" y="-1040" width="80" height="960" as="geometry" />
        </mxCell>
        <mxCell id="c7biSZGZnNbLbAdj1jw6-73" value="" style="rounded=0;whiteSpace=wrap;html=1;shadow=0;glass=0;sketch=0;fillColor=#F0F5F7;" parent="c7biSZGZnNbLbAdj1jw6-74" vertex="1">
          <mxGeometry width="80" height="960" as="geometry" />
        </mxCell>
        <mxCell id="c7biSZGZnNbLbAdj1jw6-1" value="IF/ID" style="swimlane;fillColor=#25607D;strokeColor=#9673a6;shadow=0;glass=0;sketch=0;rounded=0;fontColor=#F0F5F7;" parent="c7biSZGZnNbLbAdj1jw6-74" vertex="1">
          <mxGeometry width="80" height="960" as="geometry" />
        </mxCell>
        <mxCell id="c7biSZGZnNbLbAdj1jw6-4" value="&lt;div&gt;IF_Flush&lt;/div&gt;" style="text;html=1;align=center;verticalAlign=middle;resizable=0;points=[];autosize=1;strokeColor=none;fillColor=none;" parent="c7biSZGZnNbLbAdj1jw6-1" vertex="1">
          <mxGeometry x="10" y="30" width="60" height="20" as="geometry" />
        </mxCell>
        <mxCell id="c7biSZGZnNbLbAdj1jw6-5" value="Clock" style="text;html=1;align=center;verticalAlign=middle;resizable=0;points=[];autosize=1;strokeColor=none;fillColor=none;" parent="c7biSZGZnNbLbAdj1jw6-74" vertex="1">
          <mxGeometry x="20" y="930" width="50" height="20" as="geometry" />
        </mxCell>
        <mxCell id="c7biSZGZnNbLbAdj1jw6-171" value="PCPlus4" style="text;html=1;align=center;verticalAlign=middle;resizable=0;points=[];autosize=1;strokeColor=none;fillColor=none;fontColor=#000000;" parent="c7biSZGZnNbLbAdj1jw6-74" vertex="1">
          <mxGeometry x="10" y="580" width="60" height="20" as="geometry" />
        </mxCell>
        <mxCell id="c7biSZGZnNbLbAdj1jw6-2" value="Instruction" style="text;html=1;align=center;verticalAlign=middle;resizable=0;points=[];autosize=1;strokeColor=none;fillColor=none;" parent="c7biSZGZnNbLbAdj1jw6-74" vertex="1">
          <mxGeometry y="460" width="70" height="20" as="geometry" />
        </mxCell>
        <mxCell id="xT7GirZl_erP_Nx4-y1J-1" value="WE" style="text;html=1;align=center;verticalAlign=middle;resizable=0;points=[];autosize=1;strokeColor=none;fillColor=none;" parent="c7biSZGZnNbLbAdj1jw6-74" vertex="1">
          <mxGeometry x="25" y="70" width="30" height="20" as="geometry" />
        </mxCell>
        <mxCell id="c7biSZGZnNbLbAdj1jw6-128" value="" style="group" parent="1" connectable="0" vertex="1">
          <mxGeometry x="960" y="-1040" width="80" height="960" as="geometry" />
        </mxCell>
        <mxCell id="c7biSZGZnNbLbAdj1jw6-129" value="" style="group" parent="c7biSZGZnNbLbAdj1jw6-128" connectable="0" vertex="1">
          <mxGeometry width="80" height="960" as="geometry" />
        </mxCell>
        <mxCell id="c7biSZGZnNbLbAdj1jw6-105" value="" style="rounded=0;whiteSpace=wrap;html=1;shadow=0;glass=0;sketch=0;fillColor=#F0F5F7;" parent="c7biSZGZnNbLbAdj1jw6-129" vertex="1">
          <mxGeometry width="80" height="960" as="geometry" />
        </mxCell>
        <mxCell id="c7biSZGZnNbLbAdj1jw6-106" value="EX/MEM" style="swimlane;fillColor=#25607D;strokeColor=#9673a6;shadow=0;glass=0;sketch=0;rounded=0;fontColor=#F0F5F7;" parent="c7biSZGZnNbLbAdj1jw6-129" vertex="1">
          <mxGeometry width="80" height="960" as="geometry" />
        </mxCell>
        <mxCell id="c7biSZGZnNbLbAdj1jw6-37" value="Clock" style="text;html=1;align=center;verticalAlign=middle;resizable=0;points=[];autosize=1;strokeColor=none;fillColor=none;" parent="c7biSZGZnNbLbAdj1jw6-106" vertex="1">
          <mxGeometry x="20" y="920" width="50" height="20" as="geometry" />
        </mxCell>
        <mxCell id="P_-k0MPRVzmCdLMRWgzc-15" value="Imm&lt;br&gt;not used" style="text;html=1;align=center;verticalAlign=middle;resizable=0;points=[];autosize=1;strokeColor=none;fillColor=none;" parent="c7biSZGZnNbLbAdj1jw6-106" vertex="1">
          <mxGeometry x="10" y="675" width="60" height="30" as="geometry" />
        </mxCell>
        <mxCell id="P_-k0MPRVzmCdLMRWgzc-71" value="Rd" style="text;html=1;align=center;verticalAlign=middle;resizable=0;points=[];autosize=1;strokeColor=none;fillColor=none;" parent="c7biSZGZnNbLbAdj1jw6-106" vertex="1">
          <mxGeometry x="30" y="850" width="30" height="20" as="geometry" />
        </mxCell>
        <mxCell id="c7biSZGZnNbLbAdj1jw6-69" value="Read_Rs" style="text;html=1;align=center;verticalAlign=middle;resizable=0;points=[];autosize=1;strokeColor=none;fillColor=none;" parent="c7biSZGZnNbLbAdj1jw6-106" vertex="1">
          <mxGeometry x="10" y="610" width="70" height="20" as="geometry" />
        </mxCell>
        <mxCell id="P_-k0MPRVzmCdLMRWgzc-13" value="Zero" style="text;html=1;align=center;verticalAlign=middle;resizable=0;points=[];autosize=1;strokeColor=none;fillColor=none;" parent="c7biSZGZnNbLbAdj1jw6-106" vertex="1">
          <mxGeometry x="20" y="430" width="40" height="20" as="geometry" />
        </mxCell>
        <mxCell id="P_-k0MPRVzmCdLMRWgzc-11" value="ALURes" style="text;html=1;align=center;verticalAlign=middle;resizable=0;points=[];autosize=1;strokeColor=none;fillColor=none;" parent="c7biSZGZnNbLbAdj1jw6-106" vertex="1">
          <mxGeometry x="10" y="370" width="60" height="20" as="geometry" />
        </mxCell>
        <mxCell id="c7biSZGZnNbLbAdj1jw6-30" value="Movn" style="text;html=1;align=center;verticalAlign=middle;resizable=0;points=[];autosize=1;strokeColor=none;fillColor=none;" parent="c7biSZGZnNbLbAdj1jw6-106" vertex="1">
          <mxGeometry x="20" y="330" width="40" height="20" as="geometry" />
        </mxCell>
        <mxCell id="c7biSZGZnNbLbAdj1jw6-33" value="Halt" style="text;html=1;align=center;verticalAlign=middle;resizable=0;points=[];autosize=1;strokeColor=none;fillColor=none;" parent="c7biSZGZnNbLbAdj1jw6-106" vertex="1">
          <mxGeometry x="20" y="120" width="40" height="20" as="geometry" />
        </mxCell>
        <mxCell id="c7biSZGZnNbLbAdj1jw6-39" value="MemWrite" style="text;html=1;align=center;verticalAlign=middle;resizable=0;points=[];autosize=1;strokeColor=none;fillColor=none;" parent="c7biSZGZnNbLbAdj1jw6-106" vertex="1">
          <mxGeometry x="10" y="310" width="70" height="20" as="geometry" />
        </mxCell>
        <mxCell id="c7biSZGZnNbLbAdj1jw6-31" value="RegWrite" style="text;html=1;align=center;verticalAlign=middle;resizable=0;points=[];autosize=1;strokeColor=none;fillColor=none;" parent="c7biSZGZnNbLbAdj1jw6-106" vertex="1">
          <mxGeometry x="10" y="230" width="70" height="20" as="geometry" />
        </mxCell>
        <mxCell id="c7biSZGZnNbLbAdj1jw6-34" value="MemtoReg" style="text;html=1;align=center;verticalAlign=middle;resizable=0;points=[];autosize=1;strokeColor=none;fillColor=none;" parent="c7biSZGZnNbLbAdj1jw6-106" vertex="1">
          <mxGeometry x="10" y="290" width="70" height="20" as="geometry" />
        </mxCell>
        <mxCell id="xT7GirZl_erP_Nx4-y1J-129" value="MemRead" style="text;html=1;align=center;verticalAlign=middle;resizable=0;points=[];autosize=1;strokeColor=none;fillColor=none;" parent="c7biSZGZnNbLbAdj1jw6-106" vertex="1">
          <mxGeometry x="5" y="90" width="70" height="20" as="geometry" />
        </mxCell>
        <mxCell id="OMZVadHaSO-6CGIQP7CG-1" value="Ovfl" style="text;html=1;align=center;verticalAlign=middle;resizable=0;points=[];autosize=1;strokeColor=none;fillColor=none;" parent="c7biSZGZnNbLbAdj1jw6-106" vertex="1">
          <mxGeometry x="20" y="150" width="40" height="20" as="geometry" />
        </mxCell>
        <mxCell id="c7biSZGZnNbLbAdj1jw6-36" value="Read_Rt" style="text;html=1;align=center;verticalAlign=middle;resizable=0;points=[];autosize=1;strokeColor=none;fillColor=none;" parent="c7biSZGZnNbLbAdj1jw6-129" vertex="1">
          <mxGeometry x="10" y="640" width="60" height="20" as="geometry" />
        </mxCell>
        <mxCell id="xT7GirZl_erP_Nx4-y1J-120" value="Rst" style="text;html=1;align=center;verticalAlign=middle;resizable=0;points=[];autosize=1;strokeColor=none;fillColor=none;" parent="c7biSZGZnNbLbAdj1jw6-129" vertex="1">
          <mxGeometry x="25" y="50" width="30" height="20" as="geometry" />
        </mxCell>
        <mxCell id="xT7GirZl_erP_Nx4-y1J-121" value="WE" style="text;html=1;align=center;verticalAlign=middle;resizable=0;points=[];autosize=1;strokeColor=none;fillColor=none;" parent="c7biSZGZnNbLbAdj1jw6-129" vertex="1">
          <mxGeometry x="25" y="30" width="30" height="20" as="geometry" />
        </mxCell>
        <mxCell id="c7biSZGZnNbLbAdj1jw6-130" value="" style="group" parent="1" connectable="0" vertex="1">
          <mxGeometry x="1440" y="-1040" width="80" height="960" as="geometry" />
        </mxCell>
        <mxCell id="c7biSZGZnNbLbAdj1jw6-131" value="" style="group" parent="c7biSZGZnNbLbAdj1jw6-130" connectable="0" vertex="1">
          <mxGeometry width="80" height="960" as="geometry" />
        </mxCell>
        <mxCell id="c7biSZGZnNbLbAdj1jw6-132" value="" style="rounded=0;whiteSpace=wrap;html=1;shadow=0;glass=0;sketch=0;fillColor=#F0F5F7;" parent="c7biSZGZnNbLbAdj1jw6-131" vertex="1">
          <mxGeometry width="80" height="960" as="geometry" />
        </mxCell>
        <mxCell id="c7biSZGZnNbLbAdj1jw6-133" value="MEM/WB" style="swimlane;fillColor=#25607D;strokeColor=#9673a6;shadow=0;glass=0;sketch=0;rounded=0;fontColor=#F0F5F7;" parent="c7biSZGZnNbLbAdj1jw6-131" vertex="1">
          <mxGeometry width="80" height="960" as="geometry" />
        </mxCell>
        <mxCell id="c7biSZGZnNbLbAdj1jw6-148" value="Halt" style="text;html=1;align=center;verticalAlign=middle;resizable=0;points=[];autosize=1;strokeColor=none;fillColor=none;" parent="c7biSZGZnNbLbAdj1jw6-133" vertex="1">
          <mxGeometry x="20" y="130" width="40" height="20" as="geometry" />
        </mxCell>
        <mxCell id="c7biSZGZnNbLbAdj1jw6-150" value="PC + 4" style="text;html=1;align=center;verticalAlign=middle;resizable=0;points=[];autosize=1;strokeColor=none;fillColor=none;" parent="c7biSZGZnNbLbAdj1jw6-133" vertex="1">
          <mxGeometry x="20" y="480" width="50" height="20" as="geometry" />
        </mxCell>
        <mxCell id="c7biSZGZnNbLbAdj1jw6-152" value="Clock" style="text;html=1;align=center;verticalAlign=middle;resizable=0;points=[];autosize=1;strokeColor=none;fillColor=none;" parent="c7biSZGZnNbLbAdj1jw6-133" vertex="1">
          <mxGeometry x="20" y="920" width="50" height="20" as="geometry" />
        </mxCell>
        <mxCell id="P_-k0MPRVzmCdLMRWgzc-72" value="Rd" style="text;html=1;align=center;verticalAlign=middle;resizable=0;points=[];autosize=1;strokeColor=none;fillColor=none;" parent="c7biSZGZnNbLbAdj1jw6-133" vertex="1">
          <mxGeometry x="30" y="850" width="30" height="20" as="geometry" />
        </mxCell>
        <mxCell id="c7biSZGZnNbLbAdj1jw6-147" value="RegWrite" style="text;html=1;align=center;verticalAlign=middle;resizable=0;points=[];autosize=1;strokeColor=none;fillColor=none;" parent="c7biSZGZnNbLbAdj1jw6-133" vertex="1">
          <mxGeometry x="10" y="240" width="70" height="20" as="geometry" />
        </mxCell>
        <mxCell id="c7biSZGZnNbLbAdj1jw6-149" value="MemtoReg" style="text;html=1;align=center;verticalAlign=middle;resizable=0;points=[];autosize=1;strokeColor=none;fillColor=none;" parent="c7biSZGZnNbLbAdj1jw6-133" vertex="1">
          <mxGeometry x="10" y="290" width="70" height="20" as="geometry" />
        </mxCell>
        <mxCell id="P_-k0MPRVzmCdLMRWgzc-78" value="ALURes" style="text;html=1;align=center;verticalAlign=middle;resizable=0;points=[];autosize=1;strokeColor=none;fillColor=none;" parent="c7biSZGZnNbLbAdj1jw6-133" vertex="1">
          <mxGeometry x="10" y="350" width="60" height="20" as="geometry" />
        </mxCell>
        <mxCell id="xT7GirZl_erP_Nx4-y1J-122" value="Rst" style="text;html=1;align=center;verticalAlign=middle;resizable=0;points=[];autosize=1;strokeColor=none;fillColor=none;" parent="c7biSZGZnNbLbAdj1jw6-133" vertex="1">
          <mxGeometry x="25" y="60" width="30" height="20" as="geometry" />
        </mxCell>
        <mxCell id="xT7GirZl_erP_Nx4-y1J-123" value="WE" style="text;html=1;align=center;verticalAlign=middle;resizable=0;points=[];autosize=1;strokeColor=none;fillColor=none;" parent="c7biSZGZnNbLbAdj1jw6-133" vertex="1">
          <mxGeometry x="25" y="40" width="30" height="20" as="geometry" />
        </mxCell>
        <mxCell id="P_-k0MPRVzmCdLMRWgzc-69" value="DMemOut" style="text;html=1;align=center;verticalAlign=middle;resizable=0;points=[];autosize=1;strokeColor=none;fillColor=none;" parent="c7biSZGZnNbLbAdj1jw6-131" vertex="1">
          <mxGeometry x="10" y="440" width="70" height="20" as="geometry" />
        </mxCell>
        <mxCell id="OMZVadHaSO-6CGIQP7CG-2" value="Ovfl" style="text;html=1;align=center;verticalAlign=middle;resizable=0;points=[];autosize=1;strokeColor=none;fillColor=none;" parent="c7biSZGZnNbLbAdj1jw6-131" vertex="1">
          <mxGeometry x="20" y="150" width="40" height="20" as="geometry" />
        </mxCell>
        <mxCell id="c7biSZGZnNbLbAdj1jw6-177" style="rounded=0;orthogonalLoop=1;jettySize=auto;html=1;exitX=1;exitY=0.5;exitDx=0;exitDy=0;fontColor=#990000;endArrow=classic;endFill=1;strokeColor=#000000;strokeWidth=2;entryX=-0.038;entryY=0.512;entryDx=0;entryDy=0;entryPerimeter=0;" parent="1" source="c7biSZGZnNbLbAdj1jw6-154" target="c7biSZGZnNbLbAdj1jw6-2" edge="1">
          <mxGeometry relative="1" as="geometry">
            <mxPoint x="-280.01" y="-572.9" as="targetPoint" />
          </mxGeometry>
        </mxCell>
        <mxCell id="c7biSZGZnNbLbAdj1jw6-154" value="IMEM" style="swimlane;rounded=0;shadow=0;glass=0;sketch=0;fontColor=#F0F5F7;fillColor=#25607D;" parent="1" vertex="1">
          <mxGeometry x="-420" y="-650" width="120" height="160" as="geometry" />
        </mxCell>
        <mxCell id="c7biSZGZnNbLbAdj1jw6-155" value="&lt;font color=&quot;#000000&quot;&gt;Instr&lt;/font&gt;" style="text;html=1;align=right;verticalAlign=middle;resizable=0;points=[];autosize=1;strokeColor=none;fillColor=none;fontColor=#F0F5F7;" parent="c7biSZGZnNbLbAdj1jw6-154" vertex="1">
          <mxGeometry x="70" y="70" width="40" height="20" as="geometry" />
        </mxCell>
        <mxCell id="c7biSZGZnNbLbAdj1jw6-156" value="Instr Addr" style="text;html=1;align=left;verticalAlign=middle;resizable=0;points=[];autosize=1;strokeColor=none;fillColor=none;fontColor=#000000;" parent="c7biSZGZnNbLbAdj1jw6-154" vertex="1">
          <mxGeometry y="70" width="70" height="20" as="geometry" />
        </mxCell>
        <mxCell id="c7biSZGZnNbLbAdj1jw6-158" value="PC" style="rounded=0;whiteSpace=wrap;html=1;shadow=0;glass=0;sketch=0;fontColor=#F0F5F7;fillColor=#25607D;" parent="1" vertex="1">
          <mxGeometry x="-570" y="-650" width="40" height="160" as="geometry" />
        </mxCell>
        <mxCell id="c7biSZGZnNbLbAdj1jw6-159" value="Fetch Logic" style="swimlane;rounded=0;shadow=0;glass=0;sketch=0;fontColor=#F0F5F7;fillColor=#25607D;" parent="1" vertex="1">
          <mxGeometry x="40" y="-1040" width="130" height="230" as="geometry" />
        </mxCell>
        <mxCell id="c7biSZGZnNbLbAdj1jw6-160" value="&lt;font color=&quot;#000000&quot;&gt;PCPlus4&lt;br&gt;&lt;/font&gt;" style="text;html=1;align=left;verticalAlign=middle;resizable=0;points=[];autosize=1;strokeColor=none;fillColor=none;fontColor=#F0F5F7;" parent="c7biSZGZnNbLbAdj1jw6-159" vertex="1">
          <mxGeometry x="10" y="30" width="60" height="20" as="geometry" />
        </mxCell>
        <mxCell id="c7biSZGZnNbLbAdj1jw6-161" value="Jump" style="text;html=1;align=left;verticalAlign=middle;resizable=0;points=[];autosize=1;strokeColor=none;fillColor=none;fontColor=#000000;" parent="c7biSZGZnNbLbAdj1jw6-159" vertex="1">
          <mxGeometry x="10" y="130" width="40" height="20" as="geometry" />
        </mxCell>
        <mxCell id="c7biSZGZnNbLbAdj1jw6-162" value="JumpReg" style="text;html=1;align=left;verticalAlign=middle;resizable=0;points=[];autosize=1;strokeColor=none;fillColor=none;fontColor=#000000;" parent="c7biSZGZnNbLbAdj1jw6-159" vertex="1">
          <mxGeometry x="10" y="110" width="70" height="20" as="geometry" />
        </mxCell>
        <mxCell id="c7biSZGZnNbLbAdj1jw6-163" value="JumpRegData" style="text;html=1;align=left;verticalAlign=middle;resizable=0;points=[];autosize=1;strokeColor=none;fillColor=none;fontColor=#000000;" parent="c7biSZGZnNbLbAdj1jw6-159" vertex="1">
          <mxGeometry x="10" y="90" width="90" height="20" as="geometry" />
        </mxCell>
        <mxCell id="c7biSZGZnNbLbAdj1jw6-165" value="Branch" style="text;html=1;align=left;verticalAlign=middle;resizable=0;points=[];autosize=1;strokeColor=none;fillColor=none;fontColor=#000000;" parent="c7biSZGZnNbLbAdj1jw6-159" vertex="1">
          <mxGeometry x="10" y="50" width="50" height="20" as="geometry" />
        </mxCell>
        <mxCell id="c7biSZGZnNbLbAdj1jw6-167" value="BranchEQ" style="text;html=1;align=left;verticalAlign=middle;resizable=0;points=[];autosize=1;strokeColor=none;fillColor=none;fontColor=#000000;" parent="c7biSZGZnNbLbAdj1jw6-159" vertex="1">
          <mxGeometry x="10" y="70" width="70" height="20" as="geometry" />
        </mxCell>
        <mxCell id="c7biSZGZnNbLbAdj1jw6-168" value="JumpImm" style="text;html=1;align=left;verticalAlign=middle;resizable=0;points=[];autosize=1;strokeColor=none;fillColor=none;fontColor=#000000;" parent="c7biSZGZnNbLbAdj1jw6-159" vertex="1">
          <mxGeometry x="10" y="150" width="70" height="20" as="geometry" />
        </mxCell>
        <mxCell id="c7biSZGZnNbLbAdj1jw6-173" value="New Addr" style="text;html=1;align=right;verticalAlign=middle;resizable=0;points=[];autosize=1;strokeColor=none;fillColor=none;fontColor=#000000;" parent="c7biSZGZnNbLbAdj1jw6-159" vertex="1">
          <mxGeometry x="50" y="130" width="70" height="20" as="geometry" />
        </mxCell>
        <mxCell id="P_-k0MPRVzmCdLMRWgzc-157" value="BranchImm" style="text;html=1;align=center;verticalAlign=middle;resizable=0;points=[];autosize=1;strokeColor=none;fillColor=none;" parent="c7biSZGZnNbLbAdj1jw6-159" vertex="1">
          <mxGeometry y="170" width="80" height="20" as="geometry" />
        </mxCell>
        <mxCell id="xT7GirZl_erP_Nx4-y1J-3" value="Equal" style="text;html=1;align=center;verticalAlign=middle;resizable=0;points=[];autosize=1;strokeColor=none;fillColor=none;" parent="c7biSZGZnNbLbAdj1jw6-159" vertex="1">
          <mxGeometry x="5" y="190" width="50" height="20" as="geometry" />
        </mxCell>
        <mxCell id="OMZVadHaSO-6CGIQP7CG-6" value="PCSrc" style="text;html=1;align=right;verticalAlign=middle;resizable=0;points=[];autosize=1;strokeColor=none;fillColor=none;fontColor=#000000;" parent="c7biSZGZnNbLbAdj1jw6-159" vertex="1">
          <mxGeometry x="80" y="105" width="50" height="20" as="geometry" />
        </mxCell>
        <mxCell id="c7biSZGZnNbLbAdj1jw6-178" value="" style="endArrow=classic;html=1;rounded=0;fontColor=#990000;strokeColor=#000000;strokeWidth=2;exitX=1;exitY=0.5;exitDx=0;exitDy=0;entryX=0;entryY=0.5;entryDx=0;entryDy=0;" parent="1" source="c7biSZGZnNbLbAdj1jw6-179" target="c7biSZGZnNbLbAdj1jw6-154" edge="1">
          <mxGeometry width="50" height="50" relative="1" as="geometry">
            <mxPoint x="-600.01" y="-572.9" as="sourcePoint" />
            <mxPoint x="-550.01" y="-572.9" as="targetPoint" />
          </mxGeometry>
        </mxCell>
        <mxCell id="9XpVkmBKXh6i-lQlv5jV-2" value="[31:0]" style="edgeLabel;html=1;align=center;verticalAlign=middle;resizable=0;points=[];" parent="c7biSZGZnNbLbAdj1jw6-178" connectable="0" vertex="1">
          <mxGeometry x="-0.3587" y="-2" relative="1" as="geometry">
            <mxPoint as="offset" />
          </mxGeometry>
        </mxCell>
        <mxCell id="c7biSZGZnNbLbAdj1jw6-179" value="" style="ellipse;whiteSpace=wrap;html=1;aspect=fixed;rounded=0;shadow=0;glass=0;sketch=0;fontColor=#990000;fillColor=#000000;strokeWidth=0;" parent="1" vertex="1">
          <mxGeometry x="-520" y="-575" width="10" height="10" as="geometry" />
        </mxCell>
        <mxCell id="c7biSZGZnNbLbAdj1jw6-180" value="" style="endArrow=none;html=1;rounded=0;fontColor=#990000;strokeColor=#000000;strokeWidth=2;exitX=1;exitY=0.5;exitDx=0;exitDy=0;entryX=0;entryY=0.5;entryDx=0;entryDy=0;" parent="1" source="c7biSZGZnNbLbAdj1jw6-158" target="c7biSZGZnNbLbAdj1jw6-179" edge="1">
          <mxGeometry width="50" height="50" relative="1" as="geometry">
            <mxPoint x="-510.01" y="-522.9" as="sourcePoint" />
            <mxPoint x="-460.01" y="-572.9" as="targetPoint" />
          </mxGeometry>
        </mxCell>
        <mxCell id="c7biSZGZnNbLbAdj1jw6-184" value="RegFile" style="swimlane;rounded=0;shadow=0;glass=0;sketch=0;fontColor=#F0F5F7;strokeWidth=1;fillColor=#25607D;startSize=23;" parent="1" vertex="1">
          <mxGeometry x="40" y="-720" width="120" height="250" as="geometry" />
        </mxCell>
        <mxCell id="c7biSZGZnNbLbAdj1jw6-186" value="Rs[4:0]" style="text;html=1;align=left;verticalAlign=middle;resizable=0;points=[];autosize=1;strokeColor=none;fillColor=none;fontColor=#000000;" parent="c7biSZGZnNbLbAdj1jw6-184" vertex="1">
          <mxGeometry x="10" y="40" width="50" height="20" as="geometry" />
        </mxCell>
        <mxCell id="c7biSZGZnNbLbAdj1jw6-185" value="&lt;font color=&quot;#050505&quot;&gt;Rt[4:0]&lt;/font&gt;" style="text;html=1;align=left;verticalAlign=middle;resizable=0;points=[];autosize=1;strokeColor=none;fillColor=none;fontColor=#F0F5F7;" parent="c7biSZGZnNbLbAdj1jw6-184" vertex="1">
          <mxGeometry x="10" y="80" width="50" height="20" as="geometry" />
        </mxCell>
        <mxCell id="c7biSZGZnNbLbAdj1jw6-191" value="Read Rt" style="text;html=1;align=right;verticalAlign=middle;resizable=0;points=[];autosize=1;strokeColor=none;fillColor=none;fontColor=#000000;" parent="c7biSZGZnNbLbAdj1jw6-184" vertex="1">
          <mxGeometry x="50" y="100" width="60" height="20" as="geometry" />
        </mxCell>
        <mxCell id="c7biSZGZnNbLbAdj1jw6-190" value="Read Rs" style="text;html=1;align=right;verticalAlign=middle;resizable=0;points=[];autosize=1;strokeColor=none;fillColor=none;fontColor=#000000;" parent="c7biSZGZnNbLbAdj1jw6-184" vertex="1">
          <mxGeometry x="50" y="40" width="60" height="20" as="geometry" />
        </mxCell>
        <mxCell id="c7biSZGZnNbLbAdj1jw6-189" value="Reg Write" style="text;html=1;align=left;verticalAlign=middle;resizable=0;points=[];autosize=1;strokeColor=none;fillColor=none;fontColor=#000000;" parent="c7biSZGZnNbLbAdj1jw6-184" vertex="1">
          <mxGeometry x="10" y="220" width="70" height="20" as="geometry" />
        </mxCell>
        <mxCell id="c7biSZGZnNbLbAdj1jw6-188" value="Write Data" style="text;html=1;align=left;verticalAlign=middle;resizable=0;points=[];autosize=1;strokeColor=none;fillColor=none;fontColor=#000000;" parent="c7biSZGZnNbLbAdj1jw6-184" vertex="1">
          <mxGeometry x="10" y="170" width="70" height="20" as="geometry" />
        </mxCell>
        <mxCell id="c7biSZGZnNbLbAdj1jw6-187" value="Rd" style="text;html=1;align=left;verticalAlign=middle;resizable=0;points=[];autosize=1;strokeColor=none;fillColor=none;fontColor=#000000;" parent="c7biSZGZnNbLbAdj1jw6-184" vertex="1">
          <mxGeometry x="10" y="130" width="30" height="20" as="geometry" />
        </mxCell>
        <mxCell id="c7biSZGZnNbLbAdj1jw6-192" value="" style="endArrow=none;html=1;rounded=0;fontColor=#000000;strokeColor=default;strokeWidth=2;elbow=vertical;endFill=0;shape=link;startArrow=none;" parent="1" edge="1">
          <mxGeometry width="50" height="50" relative="1" as="geometry">
            <mxPoint x="-190.01000000000002" y="-572.9" as="sourcePoint" />
            <mxPoint x="-190.01000000000002" y="-572.9" as="targetPoint" />
          </mxGeometry>
        </mxCell>
        <mxCell id="c7biSZGZnNbLbAdj1jw6-193" value="" style="endArrow=none;html=1;rounded=0;fontColor=#000000;strokeColor=default;strokeWidth=2;elbow=vertical;shape=link;entryX=0.5;entryY=0;entryDx=0;entryDy=0;edgeStyle=orthogonalEdgeStyle;" parent="1" target="c7biSZGZnNbLbAdj1jw6-195" edge="1">
          <mxGeometry width="50" height="50" relative="1" as="geometry">
            <mxPoint x="-165" y="-860" as="sourcePoint" />
            <mxPoint x="-160.09" y="-485" as="targetPoint" />
            <Array as="points">
              <mxPoint x="-165" y="-720" />
              <mxPoint x="-165" y="-720" />
            </Array>
          </mxGeometry>
        </mxCell>
        <mxCell id="c7biSZGZnNbLbAdj1jw6-195" value="" style="ellipse;whiteSpace=wrap;html=1;aspect=fixed;rounded=0;shadow=0;glass=0;sketch=0;fontColor=#990000;fillColor=#000000;strokeWidth=0;" parent="1" vertex="1">
          <mxGeometry x="-170" y="-570" width="10" height="10" as="geometry" />
        </mxCell>
        <mxCell id="c7biSZGZnNbLbAdj1jw6-196" value="" style="endArrow=none;html=1;rounded=0;fontColor=#000000;strokeColor=default;strokeWidth=2;elbow=vertical;endFill=0;shape=link;entryX=0;entryY=0.5;entryDx=0;entryDy=0;" parent="1" target="c7biSZGZnNbLbAdj1jw6-195" edge="1">
          <mxGeometry width="50" height="50" relative="1" as="geometry">
            <mxPoint x="-195.01000000000025" y="-565" as="sourcePoint" />
            <mxPoint x="-185.01000000000002" y="-565" as="targetPoint" />
          </mxGeometry>
        </mxCell>
        <mxCell id="c7biSZGZnNbLbAdj1jw6-197" value="" style="endArrow=none;html=1;rounded=0;fontColor=#000000;strokeColor=default;strokeWidth=2;elbow=vertical;shape=link;exitX=0.5;exitY=1;exitDx=0;exitDy=0;edgeStyle=orthogonalEdgeStyle;" parent="1" source="c7biSZGZnNbLbAdj1jw6-195" edge="1">
          <mxGeometry width="50" height="50" relative="1" as="geometry">
            <mxPoint x="-160.21999999999994" y="-555" as="sourcePoint" />
            <mxPoint x="-170.01000000000002" y="-185" as="targetPoint" />
            <Array as="points">
              <mxPoint x="-170" y="-560" />
            </Array>
          </mxGeometry>
        </mxCell>
        <mxCell id="c7biSZGZnNbLbAdj1jw6-198" value="" style="endArrow=classic;html=1;rounded=0;fontColor=#000000;strokeColor=default;strokeWidth=2;elbow=vertical;" parent="1" edge="1">
          <mxGeometry width="50" height="50" relative="1" as="geometry">
            <mxPoint x="-165.01000000000002" y="-675" as="sourcePoint" />
            <mxPoint x="44.99" y="-675" as="targetPoint" />
          </mxGeometry>
        </mxCell>
        <mxCell id="c7biSZGZnNbLbAdj1jw6-219" value="Rs" style="edgeLabel;html=1;align=center;verticalAlign=middle;resizable=0;points=[];fontColor=#000000;" parent="c7biSZGZnNbLbAdj1jw6-198" connectable="0" vertex="1">
          <mxGeometry relative="1" as="geometry">
            <mxPoint x="-3" y="-1" as="offset" />
          </mxGeometry>
        </mxCell>
        <mxCell id="c7biSZGZnNbLbAdj1jw6-199" value="" style="endArrow=classic;html=1;rounded=0;fontColor=#000000;strokeColor=default;strokeWidth=2;elbow=vertical;" parent="1" edge="1">
          <mxGeometry width="50" height="50" relative="1" as="geometry">
            <mxPoint x="-165.01000000000002" y="-635" as="sourcePoint" />
            <mxPoint x="44.99" y="-635" as="targetPoint" />
          </mxGeometry>
        </mxCell>
        <mxCell id="c7biSZGZnNbLbAdj1jw6-208" value="" style="group" parent="1" connectable="0" vertex="1">
          <mxGeometry x="-100" y="-260" width="40" height="160" as="geometry" />
        </mxCell>
        <mxCell id="c7biSZGZnNbLbAdj1jw6-203" value="" style="shape=trapezoid;perimeter=trapezoidPerimeter;whiteSpace=wrap;html=1;fixedSize=1;rounded=0;shadow=0;glass=0;sketch=0;fontColor=#000000;strokeWidth=1;fillColor=#FFFFFF;size=20;rotation=90;" parent="c7biSZGZnNbLbAdj1jw6-208" vertex="1">
          <mxGeometry x="-60" y="60" width="160" height="40" as="geometry" />
        </mxCell>
        <mxCell id="c7biSZGZnNbLbAdj1jw6-204" value="00" style="text;html=1;align=center;verticalAlign=middle;resizable=0;points=[];autosize=1;strokeColor=none;fillColor=none;fontColor=#000000;" parent="c7biSZGZnNbLbAdj1jw6-208" vertex="1">
          <mxGeometry x="10" y="30" width="30" height="20" as="geometry" />
        </mxCell>
        <mxCell id="c7biSZGZnNbLbAdj1jw6-205" value="01" style="text;html=1;align=center;verticalAlign=middle;resizable=0;points=[];autosize=1;strokeColor=none;fillColor=none;fontColor=#000000;" parent="c7biSZGZnNbLbAdj1jw6-208" vertex="1">
          <mxGeometry x="10" y="70" width="30" height="20" as="geometry" />
        </mxCell>
        <mxCell id="c7biSZGZnNbLbAdj1jw6-206" value="10" style="text;html=1;align=center;verticalAlign=middle;resizable=0;points=[];autosize=1;strokeColor=none;fillColor=none;fontColor=#000000;" parent="c7biSZGZnNbLbAdj1jw6-208" vertex="1">
          <mxGeometry x="10" y="110" width="30" height="20" as="geometry" />
        </mxCell>
        <mxCell id="c7biSZGZnNbLbAdj1jw6-209" value="" style="endArrow=classic;html=1;rounded=0;fontColor=#000000;strokeColor=#73DBEB;strokeWidth=3;elbow=vertical;edgeStyle=orthogonalEdgeStyle;fillColor=#dae8fc;exitX=1.1;exitY=0.55;exitDx=0;exitDy=0;exitPerimeter=0;" parent="1" source="P_-k0MPRVzmCdLMRWgzc-72" edge="1">
          <mxGeometry width="50" height="50" relative="1" as="geometry">
            <mxPoint x="1305" y="-180" as="sourcePoint" />
            <mxPoint x="40" y="-580" as="targetPoint" />
            <Array as="points">
              <mxPoint x="1600" y="-180" />
              <mxPoint x="1600" y="260" />
              <mxPoint x="-10" y="260" />
              <mxPoint x="-10" y="-580" />
            </Array>
          </mxGeometry>
        </mxCell>
        <mxCell id="P_-k0MPRVzmCdLMRWgzc-152" value="RegFile Rd" style="edgeLabel;html=1;align=center;verticalAlign=middle;resizable=0;points=[];" parent="c7biSZGZnNbLbAdj1jw6-209" connectable="0" vertex="1">
          <mxGeometry relative="1" as="geometry">
            <mxPoint x="-538" y="-790" as="offset" />
          </mxGeometry>
        </mxCell>
        <mxCell id="rr36gFx3J1xfFyyzJc3Y-2" value="RegWrAddr" style="edgeLabel;html=1;align=center;verticalAlign=middle;resizable=0;points=[];" parent="c7biSZGZnNbLbAdj1jw6-209" connectable="0" vertex="1">
          <mxGeometry relative="1" as="geometry">
            <mxPoint x="981" y="-270" as="offset" />
          </mxGeometry>
        </mxCell>
        <mxCell id="9XpVkmBKXh6i-lQlv5jV-9" value="[4:0]" style="edgeLabel;html=1;align=center;verticalAlign=middle;resizable=0;points=[];fontColor=#050505;" parent="c7biSZGZnNbLbAdj1jw6-209" connectable="0" vertex="1">
          <mxGeometry x="0.973" y="-1" relative="1" as="geometry">
            <mxPoint as="offset" />
          </mxGeometry>
        </mxCell>
        <mxCell id="c7biSZGZnNbLbAdj1jw6-211" value="" style="endArrow=classic;html=1;rounded=0;fontColor=#000000;strokeColor=default;strokeWidth=2;elbow=vertical;entryX=0.5;entryY=1;entryDx=0;entryDy=0;edgeStyle=orthogonalEdgeStyle;" parent="1" target="c7biSZGZnNbLbAdj1jw6-203" edge="1">
          <mxGeometry width="50" height="50" relative="1" as="geometry">
            <mxPoint x="-165" y="-180" as="sourcePoint" />
            <mxPoint x="-45.01000000000001" y="-525" as="targetPoint" />
            <Array as="points">
              <mxPoint x="-150" y="-180" />
              <mxPoint x="-150" y="-180" />
            </Array>
          </mxGeometry>
        </mxCell>
        <mxCell id="c7biSZGZnNbLbAdj1jw6-214" value="Rd" style="edgeLabel;html=1;align=center;verticalAlign=middle;resizable=0;points=[];fontColor=#000000;" parent="c7biSZGZnNbLbAdj1jw6-211" connectable="0" vertex="1">
          <mxGeometry relative="1" as="geometry">
            <mxPoint x="-1" as="offset" />
          </mxGeometry>
        </mxCell>
        <mxCell id="c7biSZGZnNbLbAdj1jw6-212" value="" style="endArrow=classic;html=1;rounded=0;fontColor=#000000;strokeColor=default;strokeWidth=2;elbow=vertical;entryX=0.75;entryY=1;entryDx=0;entryDy=0;edgeStyle=orthogonalEdgeStyle;" parent="1" target="c7biSZGZnNbLbAdj1jw6-203" edge="1">
          <mxGeometry width="50" height="50" relative="1" as="geometry">
            <mxPoint x="-115.01000000000002" y="-145" as="sourcePoint" />
            <mxPoint x="-35.01000000000001" y="-485.5" as="targetPoint" />
          </mxGeometry>
        </mxCell>
        <mxCell id="P_-k0MPRVzmCdLMRWgzc-27" value="R31 (JAL)" style="edgeLabel;html=1;align=center;verticalAlign=middle;resizable=0;points=[];" parent="c7biSZGZnNbLbAdj1jw6-212" connectable="0" vertex="1">
          <mxGeometry relative="1" as="geometry">
            <mxPoint x="-34" as="offset" />
          </mxGeometry>
        </mxCell>
        <mxCell id="c7biSZGZnNbLbAdj1jw6-217" value="" style="endArrow=classic;html=1;rounded=0;fontColor=#000000;strokeColor=default;strokeWidth=2;elbow=vertical;edgeStyle=orthogonalEdgeStyle;entryX=0.25;entryY=1;entryDx=0;entryDy=0;" parent="1" target="c7biSZGZnNbLbAdj1jw6-203" edge="1">
          <mxGeometry width="50" height="50" relative="1" as="geometry">
            <mxPoint x="-165" y="-220" as="sourcePoint" />
            <mxPoint x="-95.01000000000002" y="-225" as="targetPoint" />
            <Array as="points">
              <mxPoint x="-165" y="-220" />
            </Array>
          </mxGeometry>
        </mxCell>
        <mxCell id="P_-k0MPRVzmCdLMRWgzc-26" value="Rt" style="edgeLabel;html=1;align=center;verticalAlign=middle;resizable=0;points=[];" parent="c7biSZGZnNbLbAdj1jw6-217" connectable="0" vertex="1">
          <mxGeometry relative="1" as="geometry">
            <mxPoint x="-15" y="-1" as="offset" />
          </mxGeometry>
        </mxCell>
        <mxCell id="c7biSZGZnNbLbAdj1jw6-221" value="Control" style="swimlane;rounded=1;shadow=0;glass=0;sketch=0;fontColor=#F0F5F7;fillColor=#25607D;arcSize=50;startSize=23;" parent="1" vertex="1">
          <mxGeometry x="-130" y="-890" width="90" height="160" as="geometry" />
        </mxCell>
        <mxCell id="c7biSZGZnNbLbAdj1jw6-222" value="&lt;font color=&quot;#000000&quot;&gt;Controls&lt;/font&gt;" style="text;html=1;align=right;verticalAlign=middle;resizable=0;points=[];autosize=1;strokeColor=none;fillColor=none;fontColor=#F0F5F7;" parent="c7biSZGZnNbLbAdj1jw6-221" vertex="1">
          <mxGeometry x="20" y="120" width="60" height="20" as="geometry" />
        </mxCell>
        <mxCell id="c7biSZGZnNbLbAdj1jw6-223" value="Opcode" style="text;html=1;align=left;verticalAlign=middle;resizable=0;points=[];autosize=1;strokeColor=none;fillColor=none;fontColor=#000000;" parent="c7biSZGZnNbLbAdj1jw6-221" vertex="1">
          <mxGeometry x="10" y="30" width="60" height="20" as="geometry" />
        </mxCell>
        <mxCell id="c7biSZGZnNbLbAdj1jw6-224" value="Funct" style="text;html=1;align=left;verticalAlign=middle;resizable=0;points=[];autosize=1;strokeColor=none;fillColor=none;fontColor=#000000;" parent="c7biSZGZnNbLbAdj1jw6-221" vertex="1">
          <mxGeometry x="10" y="60" width="50" height="20" as="geometry" />
        </mxCell>
        <mxCell id="c7biSZGZnNbLbAdj1jw6-225" value="" style="endArrow=classic;html=1;rounded=0;fontColor=#000000;strokeColor=default;strokeWidth=2;elbow=vertical;" parent="1" edge="1">
          <mxGeometry width="50" height="50" relative="1" as="geometry">
            <mxPoint x="-165.01000000000002" y="-854.38" as="sourcePoint" />
            <mxPoint x="-125.01000000000002" y="-855" as="targetPoint" />
          </mxGeometry>
        </mxCell>
        <mxCell id="c7biSZGZnNbLbAdj1jw6-226" value="" style="endArrow=classic;html=1;rounded=0;fontColor=#000000;strokeColor=default;strokeWidth=2;elbow=vertical;" parent="1" edge="1">
          <mxGeometry width="50" height="50" relative="1" as="geometry">
            <mxPoint x="-165.01000000000002" y="-825" as="sourcePoint" />
            <mxPoint x="-125.01000000000002" y="-825.1700000000003" as="targetPoint" />
          </mxGeometry>
        </mxCell>
        <mxCell id="c7biSZGZnNbLbAdj1jw6-227" value="" style="endArrow=none;html=1;rounded=0;fontColor=#000000;strokeColor=#82b366;strokeWidth=2;elbow=vertical;endFill=0;shape=link;edgeStyle=orthogonalEdgeStyle;startArrow=none;fillColor=#d5e8d4;" parent="1" source="c7biSZGZnNbLbAdj1jw6-235" edge="1">
          <mxGeometry width="50" height="50" relative="1" as="geometry">
            <mxPoint x="4.989999999999986" y="-845" as="sourcePoint" />
            <mxPoint x="235.1" y="-765" as="targetPoint" />
            <Array as="points">
              <mxPoint x="200" y="-765" />
              <mxPoint x="200" y="-765" />
            </Array>
          </mxGeometry>
        </mxCell>
        <mxCell id="c7biSZGZnNbLbAdj1jw6-228" value="" style="endArrow=none;dashed=1;html=1;rounded=0;fontColor=#000000;strokeColor=#82b366;strokeWidth=3;elbow=vertical;fillColor=#d5e8d4;" parent="1" edge="1">
          <mxGeometry width="50" height="50" relative="1" as="geometry">
            <mxPoint x="235" y="-750" as="sourcePoint" />
            <mxPoint x="235" y="-920" as="targetPoint" />
          </mxGeometry>
        </mxCell>
        <mxCell id="c7biSZGZnNbLbAdj1jw6-229" value="Sign Extender" style="ellipse;whiteSpace=wrap;html=1;rounded=1;shadow=0;glass=0;sketch=0;fontColor=#000000;strokeWidth=1;fillColor=#FFFFFF;" parent="1" vertex="1">
          <mxGeometry x="50" y="-390" width="100" height="60" as="geometry" />
        </mxCell>
        <mxCell id="c7biSZGZnNbLbAdj1jw6-230" value="" style="endArrow=classic;html=1;rounded=0;fontColor=#000000;strokeColor=default;strokeWidth=2;elbow=vertical;exitX=1;exitY=0.5;exitDx=0;exitDy=0;" parent="1" source="c7biSZGZnNbLbAdj1jw6-229" edge="1">
          <mxGeometry width="50" height="50" relative="1" as="geometry">
            <mxPoint x="204.98999999999998" y="-265" as="sourcePoint" />
            <mxPoint x="240" y="-360" as="targetPoint" />
          </mxGeometry>
        </mxCell>
        <mxCell id="9XpVkmBKXh6i-lQlv5jV-6" value="[31:0]" style="edgeLabel;html=1;align=center;verticalAlign=middle;resizable=0;points=[];fontColor=#050505;" parent="c7biSZGZnNbLbAdj1jw6-230" connectable="0" vertex="1">
          <mxGeometry x="-0.4" relative="1" as="geometry">
            <mxPoint as="offset" />
          </mxGeometry>
        </mxCell>
        <mxCell id="c7biSZGZnNbLbAdj1jw6-231" value="" style="endArrow=classic;html=1;rounded=0;fontColor=#000000;strokeColor=#B208CC;strokeWidth=2;elbow=vertical;" parent="1" edge="1">
          <mxGeometry width="50" height="50" relative="1" as="geometry">
            <mxPoint x="159.99999999999997" y="-670.2299999999999" as="sourcePoint" />
            <mxPoint x="239.99999999999997" y="-670.18" as="targetPoint" />
          </mxGeometry>
        </mxCell>
        <mxCell id="9XpVkmBKXh6i-lQlv5jV-4" value="[31:0]" style="edgeLabel;html=1;align=center;verticalAlign=middle;resizable=0;points=[];fontColor=#050505;" parent="c7biSZGZnNbLbAdj1jw6-231" connectable="0" vertex="1">
          <mxGeometry x="0.275" y="2" relative="1" as="geometry">
            <mxPoint as="offset" />
          </mxGeometry>
        </mxCell>
        <mxCell id="c7biSZGZnNbLbAdj1jw6-232" value="" style="endArrow=classic;html=1;rounded=0;fontColor=#000000;strokeColor=#F27100;strokeWidth=2;elbow=vertical;" parent="1" edge="1">
          <mxGeometry width="50" height="50" relative="1" as="geometry">
            <mxPoint x="159.99999999999997" y="-610" as="sourcePoint" />
            <mxPoint x="239.99999999999997" y="-610" as="targetPoint" />
          </mxGeometry>
        </mxCell>
        <mxCell id="9XpVkmBKXh6i-lQlv5jV-5" value="[31:0]" style="edgeLabel;html=1;align=center;verticalAlign=middle;resizable=0;points=[];fontColor=#050505;" parent="c7biSZGZnNbLbAdj1jw6-232" connectable="0" vertex="1">
          <mxGeometry x="0.45" y="-1" relative="1" as="geometry">
            <mxPoint as="offset" />
          </mxGeometry>
        </mxCell>
        <mxCell id="c7biSZGZnNbLbAdj1jw6-233" value="" style="endArrow=classic;html=1;rounded=0;fontColor=#000000;strokeColor=default;strokeWidth=2;elbow=vertical;entryX=0;entryY=0.5;entryDx=0;entryDy=0;" parent="1" target="c7biSZGZnNbLbAdj1jw6-229" edge="1">
          <mxGeometry width="50" height="50" relative="1" as="geometry">
            <mxPoint x="-165" y="-360" as="sourcePoint" />
            <mxPoint x="144.98999999999998" y="-385" as="targetPoint" />
          </mxGeometry>
        </mxCell>
        <mxCell id="9XpVkmBKXh6i-lQlv5jV-7" value="[15:0]" style="edgeLabel;html=1;align=center;verticalAlign=middle;resizable=0;points=[];fontColor=#050505;" parent="c7biSZGZnNbLbAdj1jw6-233" connectable="0" vertex="1">
          <mxGeometry x="-0.7581" y="1" relative="1" as="geometry">
            <mxPoint x="24" y="1" as="offset" />
          </mxGeometry>
        </mxCell>
        <mxCell id="c7biSZGZnNbLbAdj1jw6-235" value="" style="ellipse;whiteSpace=wrap;html=1;aspect=fixed;rounded=0;shadow=0;glass=0;sketch=0;fillColor=#82B366;strokeWidth=0;strokeColor=#82b366;" parent="1" vertex="1">
          <mxGeometry x="-20" y="-770" width="10" height="10" as="geometry" />
        </mxCell>
        <mxCell id="c7biSZGZnNbLbAdj1jw6-236" value="" style="endArrow=none;html=1;rounded=0;fontColor=#000000;strokeColor=#82b366;strokeWidth=2;elbow=vertical;endFill=0;shape=link;edgeStyle=orthogonalEdgeStyle;fillColor=#d5e8d4;entryX=0;entryY=0.5;entryDx=0;entryDy=0;" parent="1" target="c7biSZGZnNbLbAdj1jw6-235" edge="1">
          <mxGeometry width="50" height="50" relative="1" as="geometry">
            <mxPoint x="-35.01000000000001" y="-765" as="sourcePoint" />
            <mxPoint x="14.989999999999988" y="-845" as="targetPoint" />
            <Array as="points" />
          </mxGeometry>
        </mxCell>
        <mxCell id="c7biSZGZnNbLbAdj1jw6-174" style="edgeStyle=orthogonalEdgeStyle;rounded=0;orthogonalLoop=1;jettySize=auto;html=1;fontColor=#000000;strokeColor=#b85450;strokeWidth=3;endArrow=classic;endFill=1;fillColor=#f8cecc;exitX=1.02;exitY=0.505;exitDx=0;exitDy=0;exitPerimeter=0;" parent="1" source="c7biSZGZnNbLbAdj1jw6-173" edge="1">
          <mxGeometry relative="1" as="geometry">
            <mxPoint x="-640" y="-590" as="targetPoint" />
            <mxPoint x="1424.99" y="-935" as="sourcePoint" />
            <Array as="points">
              <mxPoint x="210" y="-900" />
              <mxPoint x="210" y="-1080" />
              <mxPoint x="-670" y="-1080" />
              <mxPoint x="-670" y="-590" />
            </Array>
          </mxGeometry>
        </mxCell>
        <mxCell id="9XpVkmBKXh6i-lQlv5jV-18" value="[31:0]" style="edgeLabel;html=1;align=center;verticalAlign=middle;resizable=0;points=[];fontColor=#030303;" parent="c7biSZGZnNbLbAdj1jw6-174" connectable="0" vertex="1">
          <mxGeometry x="-0.9567" y="2" relative="1" as="geometry">
            <mxPoint as="offset" />
          </mxGeometry>
        </mxCell>
        <mxCell id="c7biSZGZnNbLbAdj1jw6-245" value="" style="endArrow=classic;html=1;rounded=0;fontColor=#000000;strokeColor=default;strokeWidth=2;elbow=vertical;exitX=0.5;exitY=0;exitDx=0;exitDy=0;entryX=0;entryY=0.5;entryDx=0;entryDy=0;" parent="1" source="c7biSZGZnNbLbAdj1jw6-238" target="c7biSZGZnNbLbAdj1jw6-158" edge="1">
          <mxGeometry width="50" height="50" relative="1" as="geometry">
            <mxPoint x="-690.01" y="-532.9" as="sourcePoint" />
            <mxPoint x="-640.01" y="-582.9" as="targetPoint" />
          </mxGeometry>
        </mxCell>
        <mxCell id="c7biSZGZnNbLbAdj1jw6-247" value="" style="endArrow=classic;html=1;rounded=0;fontColor=#000000;strokeColor=default;strokeWidth=2;elbow=vertical;edgeStyle=orthogonalEdgeStyle;entryX=0;entryY=0.5;entryDx=0;entryDy=0;entryPerimeter=0;exitX=0.5;exitY=1;exitDx=0;exitDy=0;" parent="1" source="c7biSZGZnNbLbAdj1jw6-179" target="c7biSZGZnNbLbAdj1jw6-248" edge="1">
          <mxGeometry width="50" height="50" relative="1" as="geometry">
            <mxPoint x="-595.01" y="-562.9" as="sourcePoint" />
            <mxPoint x="-570.01" y="-669.9" as="targetPoint" />
            <Array as="points">
              <mxPoint x="-515" y="-570" />
              <mxPoint x="-510" y="-570" />
              <mxPoint x="-510" y="-420" />
            </Array>
          </mxGeometry>
        </mxCell>
        <mxCell id="c7biSZGZnNbLbAdj1jw6-250" value="" style="group" parent="1" connectable="0" vertex="1">
          <mxGeometry x="-490" y="-510" width="50" height="120" as="geometry" />
        </mxCell>
        <mxCell id="c7biSZGZnNbLbAdj1jw6-246" value="" style="verticalLabelPosition=bottom;verticalAlign=top;html=1;shape=mxgraph.basic.polygon;polyCoords=[[0,0],[0.8,0.25],[0.8,0.5],[0.8,0.75],[0,1],[0,0.58],[0.2,0.5],[0,0.42]];polyline=0;fontFamily=Helvetica;container=0;rotation=0;" parent="c7biSZGZnNbLbAdj1jw6-250" vertex="1">
          <mxGeometry width="50" height="120" as="geometry">
            <mxRectangle x="-360" y="160" width="50" height="40" as="alternateBounds" />
          </mxGeometry>
        </mxCell>
        <mxCell id="c7biSZGZnNbLbAdj1jw6-248" value="PC" style="text;html=1;align=center;verticalAlign=middle;resizable=0;points=[];autosize=1;strokeColor=none;fillColor=none;fontColor=#000000;" parent="c7biSZGZnNbLbAdj1jw6-250" vertex="1">
          <mxGeometry y="80" width="30" height="20" as="geometry" />
        </mxCell>
        <mxCell id="c7biSZGZnNbLbAdj1jw6-249" value="+4" style="text;html=1;align=center;verticalAlign=middle;resizable=0;points=[];autosize=1;strokeColor=none;fillColor=none;fontColor=#000000;" parent="c7biSZGZnNbLbAdj1jw6-250" vertex="1">
          <mxGeometry y="20" width="30" height="20" as="geometry" />
        </mxCell>
        <mxCell id="c7biSZGZnNbLbAdj1jw6-251" value="" style="endArrow=classic;html=1;rounded=0;fontColor=#000000;strokeColor=default;strokeWidth=2;elbow=vertical;edgeStyle=orthogonalEdgeStyle;entryX=0.75;entryY=1;entryDx=0;entryDy=0;exitX=0.5;exitY=1;exitDx=0;exitDy=0;" parent="1" source="c7biSZGZnNbLbAdj1jw6-253" target="c7biSZGZnNbLbAdj1jw6-238" edge="1">
          <mxGeometry width="50" height="50" relative="1" as="geometry">
            <mxPoint x="-480.01" y="-432.9" as="sourcePoint" />
            <mxPoint x="-470.01" y="-712.9" as="targetPoint" />
            <Array as="points">
              <mxPoint x="-420" y="-370" />
              <mxPoint x="-680" y="-370" />
              <mxPoint x="-680" y="-550" />
            </Array>
          </mxGeometry>
        </mxCell>
        <mxCell id="c7biSZGZnNbLbAdj1jw6-252" value="" style="endArrow=classic;html=1;rounded=0;fontColor=#000000;strokeColor=default;strokeWidth=2;elbow=vertical;exitX=1;exitY=0.5;exitDx=0;exitDy=0;" parent="1" source="c7biSZGZnNbLbAdj1jw6-253" edge="1">
          <mxGeometry width="50" height="50" relative="1" as="geometry">
            <mxPoint x="-450.01" y="-452.9" as="sourcePoint" />
            <mxPoint x="-280" y="-450" as="targetPoint" />
          </mxGeometry>
        </mxCell>
        <mxCell id="9XpVkmBKXh6i-lQlv5jV-1" value="[31:0]" style="edgeLabel;html=1;align=center;verticalAlign=middle;resizable=0;points=[];" parent="c7biSZGZnNbLbAdj1jw6-252" connectable="0" vertex="1">
          <mxGeometry x="0.3011" y="-2" relative="1" as="geometry">
            <mxPoint as="offset" />
          </mxGeometry>
        </mxCell>
        <mxCell id="c7biSZGZnNbLbAdj1jw6-253" value="" style="ellipse;whiteSpace=wrap;html=1;aspect=fixed;rounded=0;shadow=0;glass=0;sketch=0;fontColor=#990000;fillColor=#000000;strokeWidth=0;" parent="1" vertex="1">
          <mxGeometry x="-420" y="-455" width="10" height="10" as="geometry" />
        </mxCell>
        <mxCell id="c7biSZGZnNbLbAdj1jw6-254" value="" style="endArrow=none;html=1;rounded=0;fontColor=#000000;strokeColor=default;strokeWidth=2;elbow=vertical;exitX=0.828;exitY=0.504;exitDx=0;exitDy=0;exitPerimeter=0;entryX=0;entryY=0.5;entryDx=0;entryDy=0;" parent="1" source="c7biSZGZnNbLbAdj1jw6-246" target="c7biSZGZnNbLbAdj1jw6-253" edge="1">
          <mxGeometry width="50" height="50" relative="1" as="geometry">
            <mxPoint x="-460.01" y="-412.9" as="sourcePoint" />
            <mxPoint x="-410.01" y="-462.9" as="targetPoint" />
          </mxGeometry>
        </mxCell>
        <mxCell id="c7biSZGZnNbLbAdj1jw6-255" value="0 When others" style="text;html=1;align=center;verticalAlign=middle;resizable=0;points=[];autosize=1;strokeColor=none;fillColor=none;fontColor=#000000;" parent="1" vertex="1">
          <mxGeometry x="-670" y="-510" width="90" height="20" as="geometry" />
        </mxCell>
        <mxCell id="c7biSZGZnNbLbAdj1jw6-257" value="ALU" style="swimlane;rounded=0;shadow=0;glass=0;sketch=0;fontColor=#F0F5F7;strokeWidth=1;fillColor=#25607D;startSize=23;" parent="1" vertex="1">
          <mxGeometry x="760" y="-720" width="160" height="270" as="geometry" />
        </mxCell>
        <mxCell id="c7biSZGZnNbLbAdj1jw6-258" value="A[31:0]" style="text;html=1;align=left;verticalAlign=middle;resizable=0;points=[];autosize=1;strokeColor=none;fillColor=none;fontColor=#000000;" parent="c7biSZGZnNbLbAdj1jw6-257" vertex="1">
          <mxGeometry x="10" y="40" width="50" height="20" as="geometry" />
        </mxCell>
        <mxCell id="c7biSZGZnNbLbAdj1jw6-264" value="Zero" style="text;html=1;align=right;verticalAlign=middle;resizable=0;points=[];autosize=1;strokeColor=none;fillColor=none;fontColor=#000000;" parent="c7biSZGZnNbLbAdj1jw6-257" vertex="1">
          <mxGeometry x="110" y="100" width="40" height="20" as="geometry" />
        </mxCell>
        <mxCell id="c7biSZGZnNbLbAdj1jw6-259" value="&lt;font color=&quot;#030303&quot;&gt;B[31:0]&lt;/font&gt;" style="text;html=1;align=left;verticalAlign=middle;resizable=0;points=[];autosize=1;strokeColor=none;fillColor=none;fontColor=#F0F5F7;" parent="c7biSZGZnNbLbAdj1jw6-257" vertex="1">
          <mxGeometry x="10" y="130" width="50" height="20" as="geometry" />
        </mxCell>
        <mxCell id="c7biSZGZnNbLbAdj1jw6-267" value="Shamt" style="text;html=1;align=left;verticalAlign=middle;resizable=0;points=[];autosize=1;strokeColor=none;fillColor=none;fontColor=#000000;" parent="c7biSZGZnNbLbAdj1jw6-257" vertex="1">
          <mxGeometry x="10" y="220" width="50" height="20" as="geometry" />
        </mxCell>
        <mxCell id="c7biSZGZnNbLbAdj1jw6-266" value="Cout" style="text;html=1;align=right;verticalAlign=middle;resizable=0;points=[];autosize=1;strokeColor=none;fillColor=none;fontColor=#000000;" parent="c7biSZGZnNbLbAdj1jw6-257" vertex="1">
          <mxGeometry x="110" y="220" width="40" height="20" as="geometry" />
        </mxCell>
        <mxCell id="c7biSZGZnNbLbAdj1jw6-268" value="ALUOp" style="text;html=1;align=left;verticalAlign=middle;resizable=0;points=[];autosize=1;strokeColor=none;fillColor=none;fontColor=#000000;" parent="c7biSZGZnNbLbAdj1jw6-257" vertex="1">
          <mxGeometry x="10" y="170" width="50" height="20" as="geometry" />
        </mxCell>
        <mxCell id="c7biSZGZnNbLbAdj1jw6-263" value="Result" style="text;html=1;align=right;verticalAlign=middle;resizable=0;points=[];autosize=1;strokeColor=none;fillColor=none;fontColor=#000000;" parent="c7biSZGZnNbLbAdj1jw6-257" vertex="1">
          <mxGeometry x="100" y="40" width="50" height="20" as="geometry" />
        </mxCell>
        <mxCell id="c7biSZGZnNbLbAdj1jw6-265" value="Overflow" style="text;html=1;align=right;verticalAlign=middle;resizable=0;points=[];autosize=1;strokeColor=none;fillColor=none;fontColor=#000000;" parent="c7biSZGZnNbLbAdj1jw6-257" vertex="1">
          <mxGeometry x="90" y="160" width="60" height="20" as="geometry" />
        </mxCell>
        <mxCell id="c7biSZGZnNbLbAdj1jw6-272" value="" style="group" parent="1" connectable="0" vertex="1">
          <mxGeometry x="-640" y="-620" width="40" height="100" as="geometry" />
        </mxCell>
        <mxCell id="c7biSZGZnNbLbAdj1jw6-238" value="" style="shape=trapezoid;perimeter=trapezoidPerimeter;whiteSpace=wrap;html=1;fixedSize=1;rounded=0;shadow=0;glass=0;sketch=0;fontColor=#000000;strokeWidth=1;fillColor=#FFFFFF;size=20;rotation=90;" parent="c7biSZGZnNbLbAdj1jw6-272" vertex="1">
          <mxGeometry x="-30" y="30" width="100" height="40" as="geometry" />
        </mxCell>
        <mxCell id="c7biSZGZnNbLbAdj1jw6-242" value="0" style="text;html=1;align=center;verticalAlign=middle;resizable=0;points=[];autosize=1;strokeColor=none;fillColor=none;fontColor=#000000;" parent="c7biSZGZnNbLbAdj1jw6-272" vertex="1">
          <mxGeometry x="10" y="60" width="20" height="20" as="geometry" />
        </mxCell>
        <mxCell id="c7biSZGZnNbLbAdj1jw6-243" value="1" style="text;html=1;align=center;verticalAlign=middle;resizable=0;points=[];autosize=1;strokeColor=none;fillColor=none;fontColor=#000000;" parent="c7biSZGZnNbLbAdj1jw6-272" vertex="1">
          <mxGeometry x="10" y="20" width="20" height="20" as="geometry" />
        </mxCell>
        <mxCell id="c7biSZGZnNbLbAdj1jw6-274" value="" style="group" parent="1" connectable="0" vertex="1">
          <mxGeometry x="690" y="-635" width="40" height="100" as="geometry" />
        </mxCell>
        <mxCell id="c7biSZGZnNbLbAdj1jw6-275" value="" style="shape=trapezoid;perimeter=trapezoidPerimeter;whiteSpace=wrap;html=1;fixedSize=1;rounded=0;shadow=0;glass=0;sketch=0;fontColor=#000000;strokeWidth=1;fillColor=#FFFFFF;size=20;rotation=90;" parent="c7biSZGZnNbLbAdj1jw6-274" vertex="1">
          <mxGeometry x="-30" y="30" width="100" height="40" as="geometry" />
        </mxCell>
        <mxCell id="c7biSZGZnNbLbAdj1jw6-277" value="1" style="text;html=1;align=center;verticalAlign=middle;resizable=0;points=[];autosize=1;strokeColor=none;fillColor=none;fontColor=#000000;" parent="c7biSZGZnNbLbAdj1jw6-274" vertex="1">
          <mxGeometry x="10" y="60" width="20" height="20" as="geometry" />
        </mxCell>
        <mxCell id="c7biSZGZnNbLbAdj1jw6-276" value="0" style="text;html=1;align=center;verticalAlign=middle;resizable=0;points=[];autosize=1;strokeColor=none;fillColor=none;fontColor=#000000;" parent="c7biSZGZnNbLbAdj1jw6-274" vertex="1">
          <mxGeometry x="10" y="20" width="20" height="20" as="geometry" />
        </mxCell>
        <mxCell id="c7biSZGZnNbLbAdj1jw6-278" value="" style="endArrow=classic;html=1;rounded=0;fontColor=#000000;strokeColor=default;strokeWidth=1;elbow=vertical;edgeStyle=orthogonalEdgeStyle;entryX=0.75;entryY=1;entryDx=0;entryDy=0;" parent="1" target="c7biSZGZnNbLbAdj1jw6-275" edge="1">
          <mxGeometry width="50" height="50" relative="1" as="geometry">
            <mxPoint x="630" y="-355" as="sourcePoint" />
            <mxPoint x="420" y="-560" as="targetPoint" />
            <Array as="points">
              <mxPoint x="630" y="-360" />
              <mxPoint x="640" y="-360" />
              <mxPoint x="640" y="-560" />
            </Array>
          </mxGeometry>
        </mxCell>
        <mxCell id="c7biSZGZnNbLbAdj1jw6-279" value="" style="endArrow=classic;html=1;rounded=0;fontColor=#000000;strokeColor=default;strokeWidth=1;elbow=vertical;entryX=0;entryY=0.5;entryDx=0;entryDy=0;exitX=0.5;exitY=0;exitDx=0;exitDy=0;" parent="1" source="c7biSZGZnNbLbAdj1jw6-275" target="c7biSZGZnNbLbAdj1jw6-257" edge="1">
          <mxGeometry width="50" height="50" relative="1" as="geometry">
            <mxPoint x="460" y="-590" as="sourcePoint" />
            <mxPoint x="540" y="-590" as="targetPoint" />
          </mxGeometry>
        </mxCell>
        <mxCell id="P_-k0MPRVzmCdLMRWgzc-1" value="" style="endArrow=classic;html=1;rounded=0;fillColor=#d5e8d4;strokeColor=#8DC26E;strokeWidth=2;edgeStyle=orthogonalEdgeStyle;entryX=0;entryY=0.5;entryDx=0;entryDy=0;" parent="1" target="c7biSZGZnNbLbAdj1jw6-275" edge="1">
          <mxGeometry width="50" height="50" relative="1" as="geometry">
            <mxPoint x="325" y="-760" as="sourcePoint" />
            <mxPoint x="780" y="-820" as="targetPoint" />
            <Array as="points">
              <mxPoint x="325" y="-760" />
              <mxPoint x="710" y="-760" />
            </Array>
          </mxGeometry>
        </mxCell>
        <mxCell id="P_-k0MPRVzmCdLMRWgzc-2" value="ALUSrc" style="edgeLabel;html=1;align=center;verticalAlign=middle;resizable=0;points=[];" parent="P_-k0MPRVzmCdLMRWgzc-1" connectable="0" vertex="1">
          <mxGeometry relative="1" as="geometry">
            <mxPoint as="offset" />
          </mxGeometry>
        </mxCell>
        <mxCell id="P_-k0MPRVzmCdLMRWgzc-3" value="" style="endArrow=classic;html=1;rounded=0;strokeWidth=2;entryX=0;entryY=0.5;entryDx=0;entryDy=0;fillColor=#d5e8d4;strokeColor=#82b366;edgeStyle=orthogonalEdgeStyle;" parent="1" target="c7biSZGZnNbLbAdj1jw6-203" edge="1">
          <mxGeometry width="50" height="50" relative="1" as="geometry">
            <mxPoint x="-75" y="-450" as="sourcePoint" />
            <mxPoint x="44.99" y="-605" as="targetPoint" />
            <Array as="points">
              <mxPoint x="-70" y="-440" />
              <mxPoint x="-70" y="-440" />
            </Array>
          </mxGeometry>
        </mxCell>
        <mxCell id="P_-k0MPRVzmCdLMRWgzc-4" value="RegDst[1:0]" style="edgeLabel;html=1;align=center;verticalAlign=middle;resizable=0;points=[];" parent="P_-k0MPRVzmCdLMRWgzc-3" connectable="0" vertex="1">
          <mxGeometry relative="1" as="geometry">
            <mxPoint x="1" y="34" as="offset" />
          </mxGeometry>
        </mxCell>
        <mxCell id="P_-k0MPRVzmCdLMRWgzc-6" value="" style="ellipse;whiteSpace=wrap;html=1;aspect=fixed;rounded=0;shadow=0;glass=0;sketch=0;fontColor=#990000;fillColor=#000000;strokeWidth=0;" parent="1" vertex="1">
          <mxGeometry x="630" y="-360" width="10" height="10" as="geometry" />
        </mxCell>
        <mxCell id="P_-k0MPRVzmCdLMRWgzc-9" value="" style="endArrow=none;html=1;rounded=0;strokeWidth=1;entryX=0;entryY=0.5;entryDx=0;entryDy=0;" parent="1" target="P_-k0MPRVzmCdLMRWgzc-6" edge="1">
          <mxGeometry width="50" height="50" relative="1" as="geometry">
            <mxPoint x="324.99" y="-355" as="sourcePoint" />
            <mxPoint x="364.99" y="-275" as="targetPoint" />
            <Array as="points" />
          </mxGeometry>
        </mxCell>
        <mxCell id="P_-k0MPRVzmCdLMRWgzc-14" value="" style="endArrow=classic;html=1;rounded=0;strokeWidth=1;" parent="1" edge="1">
          <mxGeometry width="50" height="50" relative="1" as="geometry">
            <mxPoint x="920" y="-605" as="sourcePoint" />
            <mxPoint x="960.11" y="-605" as="targetPoint" />
          </mxGeometry>
        </mxCell>
        <mxCell id="P_-k0MPRVzmCdLMRWgzc-16" value="" style="endArrow=classic;html=1;rounded=0;strokeWidth=1;exitX=1;exitY=0.5;exitDx=0;exitDy=0;" parent="1" source="P_-k0MPRVzmCdLMRWgzc-6" edge="1">
          <mxGeometry width="50" height="50" relative="1" as="geometry">
            <mxPoint x="394.99" y="-275" as="sourcePoint" />
            <mxPoint x="960" y="-355" as="targetPoint" />
          </mxGeometry>
        </mxCell>
        <mxCell id="P_-k0MPRVzmCdLMRWgzc-17" value="DMEM" style="swimlane;rounded=0;shadow=0;glass=0;sketch=0;fontColor=#F0F5F7;fillColor=#25607D;startSize=23;" parent="1" vertex="1">
          <mxGeometry x="1240" y="-670" width="120" height="140" as="geometry" />
        </mxCell>
        <mxCell id="P_-k0MPRVzmCdLMRWgzc-18" value="&lt;font color=&quot;#000000&quot;&gt;Data&lt;/font&gt;" style="text;html=1;align=right;verticalAlign=middle;resizable=0;points=[];autosize=1;strokeColor=none;fillColor=none;fontColor=#F0F5F7;" parent="P_-k0MPRVzmCdLMRWgzc-17" vertex="1">
          <mxGeometry x="70" y="70" width="40" height="20" as="geometry" />
        </mxCell>
        <mxCell id="P_-k0MPRVzmCdLMRWgzc-19" value="Addr [11:2]" style="text;html=1;align=left;verticalAlign=middle;resizable=0;points=[];autosize=1;strokeColor=none;fillColor=none;fontColor=#000000;" parent="P_-k0MPRVzmCdLMRWgzc-17" vertex="1">
          <mxGeometry x="10" y="30" width="70" height="20" as="geometry" />
        </mxCell>
        <mxCell id="P_-k0MPRVzmCdLMRWgzc-20" value="Wr Data" style="text;html=1;align=left;verticalAlign=middle;resizable=0;points=[];autosize=1;strokeColor=none;fillColor=none;" parent="P_-k0MPRVzmCdLMRWgzc-17" vertex="1">
          <mxGeometry x="10" y="110" width="60" height="20" as="geometry" />
        </mxCell>
        <mxCell id="P_-k0MPRVzmCdLMRWgzc-31" value="MemWrite" style="text;html=1;align=left;verticalAlign=middle;resizable=0;points=[];autosize=1;strokeColor=none;fillColor=none;" parent="P_-k0MPRVzmCdLMRWgzc-17" vertex="1">
          <mxGeometry x="10" y="70" width="70" height="20" as="geometry" />
        </mxCell>
        <mxCell id="P_-k0MPRVzmCdLMRWgzc-21" value="" style="endArrow=classic;html=1;rounded=0;strokeWidth=2;edgeStyle=orthogonalEdgeStyle;fillColor=#e1d5e7;strokeColor=#F27100;" parent="1" edge="1">
          <mxGeometry width="50" height="50" relative="1" as="geometry">
            <mxPoint x="1044.99" y="-395" as="sourcePoint" />
            <mxPoint x="1240" y="-550" as="targetPoint" />
            <Array as="points">
              <mxPoint x="1150" y="-390" />
              <mxPoint x="1150" y="-550" />
              <mxPoint x="1240" y="-550" />
            </Array>
          </mxGeometry>
        </mxCell>
        <mxCell id="P_-k0MPRVzmCdLMRWgzc-25" value="" style="endArrow=classic;html=1;rounded=0;strokeWidth=2;edgeStyle=orthogonalEdgeStyle;fillColor=#f8cecc;strokeColor=#F27100;" parent="1" edge="1">
          <mxGeometry width="50" height="50" relative="1" as="geometry">
            <mxPoint x="610" y="-610" as="sourcePoint" />
            <mxPoint x="960" y="-400" as="targetPoint" />
            <Array as="points">
              <mxPoint x="610" y="-400" />
            </Array>
          </mxGeometry>
        </mxCell>
        <mxCell id="9XpVkmBKXh6i-lQlv5jV-14" value="[31:0]" style="edgeLabel;html=1;align=center;verticalAlign=middle;resizable=0;points=[];fontColor=#030303;" parent="P_-k0MPRVzmCdLMRWgzc-25" connectable="0" vertex="1">
          <mxGeometry x="0.8346" y="-1" relative="1" as="geometry">
            <mxPoint y="-1" as="offset" />
          </mxGeometry>
        </mxCell>
        <mxCell id="P_-k0MPRVzmCdLMRWgzc-28" value="" style="endArrow=classic;html=1;rounded=0;strokeWidth=3;exitX=0.5;exitY=0;exitDx=0;exitDy=0;fillColor=#dae8fc;strokeColor=#73DBEB;" parent="1" source="c7biSZGZnNbLbAdj1jw6-203" edge="1">
          <mxGeometry width="50" height="50" relative="1" as="geometry">
            <mxPoint x="114.98999999999998" y="-285" as="sourcePoint" />
            <mxPoint x="244.98999999999998" y="-185" as="targetPoint" />
          </mxGeometry>
        </mxCell>
        <mxCell id="rr36gFx3J1xfFyyzJc3Y-1" value="RdFinal" style="edgeLabel;html=1;align=center;verticalAlign=middle;resizable=0;points=[];" parent="P_-k0MPRVzmCdLMRWgzc-28" connectable="0" vertex="1">
          <mxGeometry relative="1" as="geometry">
            <mxPoint x="8" y="-3" as="offset" />
          </mxGeometry>
        </mxCell>
        <mxCell id="9XpVkmBKXh6i-lQlv5jV-8" value="[4:0]" style="edgeLabel;html=1;align=center;verticalAlign=middle;resizable=0;points=[];fontColor=#050505;" parent="P_-k0MPRVzmCdLMRWgzc-28" connectable="0" vertex="1">
          <mxGeometry x="0.5479" y="3" relative="1" as="geometry">
            <mxPoint as="offset" />
          </mxGeometry>
        </mxCell>
        <mxCell id="P_-k0MPRVzmCdLMRWgzc-29" value="" style="endArrow=classic;html=1;rounded=0;strokeWidth=2;entryX=0;entryY=0.5;entryDx=0;entryDy=0;exitX=1;exitY=0.5;exitDx=0;exitDy=0;edgeStyle=orthogonalEdgeStyle;fillColor=#d5e8d4;strokeColor=#82b366;" parent="1" source="c7biSZGZnNbLbAdj1jw6-159" target="c7biSZGZnNbLbAdj1jw6-238" edge="1">
          <mxGeometry width="50" height="50" relative="1" as="geometry">
            <mxPoint x="-734.01" y="-875" as="sourcePoint" />
            <mxPoint x="-315.01" y="-685" as="targetPoint" />
            <Array as="points">
              <mxPoint x="190" y="-925" />
              <mxPoint x="190" y="-1060" />
              <mxPoint x="-620" y="-1060" />
            </Array>
          </mxGeometry>
        </mxCell>
        <mxCell id="P_-k0MPRVzmCdLMRWgzc-30" value="PCSrc" style="edgeLabel;html=1;align=center;verticalAlign=middle;resizable=0;points=[];" parent="P_-k0MPRVzmCdLMRWgzc-29" connectable="0" vertex="1">
          <mxGeometry relative="1" as="geometry">
            <mxPoint x="-3" y="405" as="offset" />
          </mxGeometry>
        </mxCell>
        <mxCell id="OMZVadHaSO-6CGIQP7CG-5" value="PCSrc" style="edgeLabel;html=1;align=center;verticalAlign=middle;resizable=0;points=[];" parent="P_-k0MPRVzmCdLMRWgzc-29" connectable="0" vertex="1">
          <mxGeometry x="0.9497" y="-4" relative="1" as="geometry">
            <mxPoint as="offset" />
          </mxGeometry>
        </mxCell>
        <mxCell id="P_-k0MPRVzmCdLMRWgzc-34" value="" style="endArrow=classic;html=1;rounded=0;strokeWidth=1;edgeStyle=orthogonalEdgeStyle;entryX=-0.062;entryY=0.459;entryDx=0;entryDy=0;entryPerimeter=0;" parent="1" target="c7biSZGZnNbLbAdj1jw6-267" edge="1">
          <mxGeometry width="50" height="50" relative="1" as="geometry">
            <mxPoint x="320" y="-480" as="sourcePoint" />
            <mxPoint x="540" y="-480" as="targetPoint" />
            <Array as="points">
              <mxPoint x="767" y="-480" />
            </Array>
          </mxGeometry>
        </mxCell>
        <mxCell id="9XpVkmBKXh6i-lQlv5jV-10" value="[31:0]" style="edgeLabel;html=1;align=center;verticalAlign=middle;resizable=0;points=[];fontColor=#050505;" parent="P_-k0MPRVzmCdLMRWgzc-34" connectable="0" vertex="1">
          <mxGeometry x="0.6735" y="-2" relative="1" as="geometry">
            <mxPoint as="offset" />
          </mxGeometry>
        </mxCell>
        <mxCell id="P_-k0MPRVzmCdLMRWgzc-35" value="" style="group" parent="1" connectable="0" vertex="1">
          <mxGeometry x="1090" y="-690" width="40" height="100" as="geometry" />
        </mxCell>
        <mxCell id="P_-k0MPRVzmCdLMRWgzc-36" value="" style="shape=trapezoid;perimeter=trapezoidPerimeter;whiteSpace=wrap;html=1;fixedSize=1;rounded=0;shadow=0;glass=0;sketch=0;fontColor=#000000;strokeWidth=1;fillColor=#FFFFFF;size=20;rotation=90;" parent="P_-k0MPRVzmCdLMRWgzc-35" vertex="1">
          <mxGeometry x="-30" y="30" width="100" height="40" as="geometry" />
        </mxCell>
        <mxCell id="P_-k0MPRVzmCdLMRWgzc-37" value="1" style="text;html=1;align=center;verticalAlign=middle;resizable=0;points=[];autosize=1;strokeColor=none;fillColor=none;fontColor=#000000;" parent="P_-k0MPRVzmCdLMRWgzc-35" vertex="1">
          <mxGeometry x="10" y="60" width="20" height="20" as="geometry" />
        </mxCell>
        <mxCell id="P_-k0MPRVzmCdLMRWgzc-38" value="0" style="text;html=1;align=center;verticalAlign=middle;resizable=0;points=[];autosize=1;strokeColor=none;fillColor=none;fontColor=#000000;" parent="P_-k0MPRVzmCdLMRWgzc-35" vertex="1">
          <mxGeometry x="10" y="20" width="20" height="20" as="geometry" />
        </mxCell>
        <mxCell id="P_-k0MPRVzmCdLMRWgzc-39" value="" style="endArrow=classic;html=1;rounded=0;strokeWidth=2;edgeStyle=orthogonalEdgeStyle;entryX=0;entryY=0.5;entryDx=0;entryDy=0;fillColor=#d5e8d4;strokeColor=#82b366;startArrow=none;exitX=0.5;exitY=1;exitDx=0;exitDy=0;" parent="1" source="P_-k0MPRVzmCdLMRWgzc-114" target="P_-k0MPRVzmCdLMRWgzc-36" edge="1">
          <mxGeometry width="50" height="50" relative="1" as="geometry">
            <mxPoint x="1113.99" y="-695" as="sourcePoint" />
            <mxPoint x="1024.99" y="-755" as="targetPoint" />
            <Array as="points">
              <mxPoint x="1115" y="-680" />
            </Array>
          </mxGeometry>
        </mxCell>
        <mxCell id="P_-k0MPRVzmCdLMRWgzc-98" value="Movn AND Zero" style="edgeLabel;html=1;align=center;verticalAlign=middle;resizable=0;points=[];" parent="P_-k0MPRVzmCdLMRWgzc-39" connectable="0" vertex="1">
          <mxGeometry relative="1" as="geometry">
            <mxPoint x="25" y="-2" as="offset" />
          </mxGeometry>
        </mxCell>
        <mxCell id="P_-k0MPRVzmCdLMRWgzc-42" value="" style="endArrow=classic;html=1;rounded=0;strokeColor=#B208CC;strokeWidth=2;edgeStyle=orthogonalEdgeStyle;fillColor=#e1d5e7;" parent="1" edge="1">
          <mxGeometry width="50" height="50" relative="1" as="geometry">
            <mxPoint x="1044.99" y="-425" as="sourcePoint" />
            <mxPoint x="1090" y="-610" as="targetPoint" />
            <Array as="points">
              <mxPoint x="1070" y="-420" />
              <mxPoint x="1070" y="-610" />
            </Array>
          </mxGeometry>
        </mxCell>
        <mxCell id="P_-k0MPRVzmCdLMRWgzc-44" value="" style="endArrow=classic;html=1;rounded=0;strokeColor=#001DBC;strokeWidth=2;edgeStyle=orthogonalEdgeStyle;exitX=0.5;exitY=0;exitDx=0;exitDy=0;fillColor=#0050ef;" parent="1" source="P_-k0MPRVzmCdLMRWgzc-36" edge="1">
          <mxGeometry width="50" height="50" relative="1" as="geometry">
            <mxPoint x="1160" y="-640" as="sourcePoint" />
            <mxPoint x="1240" y="-630" as="targetPoint" />
            <Array as="points">
              <mxPoint x="1130" y="-630" />
            </Array>
          </mxGeometry>
        </mxCell>
        <mxCell id="P_-k0MPRVzmCdLMRWgzc-45" value="" style="endArrow=classic;html=1;rounded=0;strokeColor=#82b366;strokeWidth=2;edgeStyle=orthogonalEdgeStyle;fillColor=#d5e8d4;" parent="1" edge="1">
          <mxGeometry width="50" height="50" relative="1" as="geometry">
            <mxPoint x="1044.99" y="-725" as="sourcePoint" />
            <mxPoint x="1240" y="-590" as="targetPoint" />
            <Array as="points">
              <mxPoint x="1200" y="-720" />
              <mxPoint x="1200" y="-590" />
            </Array>
          </mxGeometry>
        </mxCell>
        <mxCell id="P_-k0MPRVzmCdLMRWgzc-66" value="" style="endArrow=none;dashed=1;html=1;rounded=0;fontColor=#000000;strokeColor=#82b366;strokeWidth=3;elbow=vertical;fillColor=#d5e8d4;" parent="1" edge="1">
          <mxGeometry width="50" height="50" relative="1" as="geometry">
            <mxPoint x="954.99" y="-690" as="sourcePoint" />
            <mxPoint x="955" y="-810" as="targetPoint" />
          </mxGeometry>
        </mxCell>
        <mxCell id="P_-k0MPRVzmCdLMRWgzc-70" value="" style="endArrow=classic;html=1;rounded=0;strokeColor=#000000;strokeWidth=1;" parent="1" edge="1">
          <mxGeometry width="50" height="50" relative="1" as="geometry">
            <mxPoint x="1360" y="-595" as="sourcePoint" />
            <mxPoint x="1444.99" y="-595" as="targetPoint" />
          </mxGeometry>
        </mxCell>
        <mxCell id="l_jW_QR7W9HBfsYtleDY-3" value="s_DMemOut" style="edgeLabel;html=1;align=center;verticalAlign=middle;resizable=0;points=[];" parent="P_-k0MPRVzmCdLMRWgzc-70" connectable="0" vertex="1">
          <mxGeometry relative="1" as="geometry">
            <mxPoint x="-18" y="1" as="offset" />
          </mxGeometry>
        </mxCell>
        <mxCell id="P_-k0MPRVzmCdLMRWgzc-73" value="" style="group" parent="1" connectable="0" vertex="1">
          <mxGeometry x="1620" y="-675" width="40" height="160" as="geometry" />
        </mxCell>
        <mxCell id="P_-k0MPRVzmCdLMRWgzc-74" value="" style="shape=trapezoid;perimeter=trapezoidPerimeter;whiteSpace=wrap;html=1;fixedSize=1;rounded=0;shadow=0;glass=0;sketch=0;fontColor=#000000;strokeWidth=1;fillColor=#FFFFFF;size=20;rotation=90;" parent="P_-k0MPRVzmCdLMRWgzc-73" vertex="1">
          <mxGeometry x="-60" y="60" width="160" height="40" as="geometry" />
        </mxCell>
        <mxCell id="P_-k0MPRVzmCdLMRWgzc-75" value="00" style="text;html=1;align=center;verticalAlign=middle;resizable=0;points=[];autosize=1;strokeColor=none;fillColor=none;fontColor=#000000;" parent="P_-k0MPRVzmCdLMRWgzc-73" vertex="1">
          <mxGeometry x="10" y="30" width="30" height="20" as="geometry" />
        </mxCell>
        <mxCell id="P_-k0MPRVzmCdLMRWgzc-76" value="01" style="text;html=1;align=center;verticalAlign=middle;resizable=0;points=[];autosize=1;strokeColor=none;fillColor=none;fontColor=#000000;" parent="P_-k0MPRVzmCdLMRWgzc-73" vertex="1">
          <mxGeometry x="10" y="70" width="30" height="20" as="geometry" />
        </mxCell>
        <mxCell id="P_-k0MPRVzmCdLMRWgzc-77" value="10" style="text;html=1;align=center;verticalAlign=middle;resizable=0;points=[];autosize=1;strokeColor=none;fillColor=none;fontColor=#000000;" parent="P_-k0MPRVzmCdLMRWgzc-73" vertex="1">
          <mxGeometry x="10" y="110" width="30" height="20" as="geometry" />
        </mxCell>
        <mxCell id="P_-k0MPRVzmCdLMRWgzc-81" value="" style="endArrow=classic;html=1;rounded=0;strokeColor=#001DBC;strokeWidth=2;edgeStyle=orthogonalEdgeStyle;fillColor=#0050ef;" parent="1" edge="1">
          <mxGeometry width="50" height="50" relative="1" as="geometry">
            <mxPoint x="1170" y="-630" as="sourcePoint" />
            <mxPoint x="1440" y="-680" as="targetPoint" />
            <Array as="points">
              <mxPoint x="1170" y="-680" />
            </Array>
          </mxGeometry>
        </mxCell>
        <mxCell id="9XpVkmBKXh6i-lQlv5jV-17" value="[31:0]" style="edgeLabel;html=1;align=center;verticalAlign=middle;resizable=0;points=[];fontColor=#030303;" parent="P_-k0MPRVzmCdLMRWgzc-81" connectable="0" vertex="1">
          <mxGeometry x="0.7" y="3" relative="1" as="geometry">
            <mxPoint as="offset" />
          </mxGeometry>
        </mxCell>
        <mxCell id="P_-k0MPRVzmCdLMRWgzc-82" value="" style="endArrow=classic;html=1;rounded=0;strokeColor=#000000;strokeWidth=1;entryX=0.25;entryY=1;entryDx=0;entryDy=0;edgeStyle=orthogonalEdgeStyle;" parent="1" target="P_-k0MPRVzmCdLMRWgzc-74" edge="1">
          <mxGeometry width="50" height="50" relative="1" as="geometry">
            <mxPoint x="1524.99" y="-685" as="sourcePoint" />
            <mxPoint x="1664.99" y="-575" as="targetPoint" />
            <Array as="points">
              <mxPoint x="1590" y="-680" />
              <mxPoint x="1590" y="-630" />
            </Array>
          </mxGeometry>
        </mxCell>
        <mxCell id="P_-k0MPRVzmCdLMRWgzc-84" value="" style="endArrow=classic;html=1;rounded=0;strokeColor=#000000;strokeWidth=1;entryX=0.5;entryY=1;entryDx=0;entryDy=0;" parent="1" target="P_-k0MPRVzmCdLMRWgzc-74" edge="1">
          <mxGeometry width="50" height="50" relative="1" as="geometry">
            <mxPoint x="1524.99" y="-595" as="sourcePoint" />
            <mxPoint x="1654.99" y="-595" as="targetPoint" />
          </mxGeometry>
        </mxCell>
        <mxCell id="P_-k0MPRVzmCdLMRWgzc-87" value="" style="endArrow=classic;html=1;rounded=0;strokeColor=#000000;strokeWidth=1;entryX=0.75;entryY=1;entryDx=0;entryDy=0;" parent="1" target="P_-k0MPRVzmCdLMRWgzc-74" edge="1">
          <mxGeometry width="50" height="50" relative="1" as="geometry">
            <mxPoint x="1524.99" y="-555" as="sourcePoint" />
            <mxPoint x="1704.99" y="-585" as="targetPoint" />
          </mxGeometry>
        </mxCell>
        <mxCell id="P_-k0MPRVzmCdLMRWgzc-89" value="" style="endArrow=classic;html=1;rounded=0;strokeColor=#000000;strokeWidth=1;" parent="1" edge="1">
          <mxGeometry width="50" height="50" relative="1" as="geometry">
            <mxPoint x="1044.99" y="-745" as="sourcePoint" />
            <mxPoint x="1440" y="-745" as="targetPoint" />
          </mxGeometry>
        </mxCell>
        <mxCell id="P_-k0MPRVzmCdLMRWgzc-90" value="" style="endArrow=classic;html=1;rounded=0;strokeColor=#82b366;strokeWidth=2;edgeStyle=orthogonalEdgeStyle;entryX=0;entryY=0.5;entryDx=0;entryDy=0;fillColor=#d5e8d4;" parent="1" target="P_-k0MPRVzmCdLMRWgzc-74" edge="1">
          <mxGeometry width="50" height="50" relative="1" as="geometry">
            <mxPoint x="1524.99" y="-745" as="sourcePoint" />
            <mxPoint x="1664.99" y="-735" as="targetPoint" />
          </mxGeometry>
        </mxCell>
        <mxCell id="9XpVkmBKXh6i-lQlv5jV-16" value="[1:0]" style="edgeLabel;html=1;align=center;verticalAlign=middle;resizable=0;points=[];fontColor=#030303;" parent="P_-k0MPRVzmCdLMRWgzc-90" connectable="0" vertex="1">
          <mxGeometry x="0.7026" y="-2" relative="1" as="geometry">
            <mxPoint as="offset" />
          </mxGeometry>
        </mxCell>
        <mxCell id="P_-k0MPRVzmCdLMRWgzc-91" value="" style="endArrow=classic;html=1;rounded=0;strokeColor=#F50000;strokeWidth=3;exitX=0.5;exitY=0;exitDx=0;exitDy=0;edgeStyle=orthogonalEdgeStyle;elbow=vertical;fillColor=#f8cecc;" parent="1" source="P_-k0MPRVzmCdLMRWgzc-74" edge="1">
          <mxGeometry width="50" height="50" relative="1" as="geometry">
            <mxPoint x="1734.99" y="-605" as="sourcePoint" />
            <mxPoint x="40" y="-540" as="targetPoint" />
            <Array as="points">
              <mxPoint x="1660" y="-590" />
              <mxPoint x="1720" y="-590" />
              <mxPoint x="1720" y="280" />
              <mxPoint x="-30" y="280" />
              <mxPoint x="-30" y="-540" />
            </Array>
          </mxGeometry>
        </mxCell>
        <mxCell id="rr36gFx3J1xfFyyzJc3Y-3" value="RegWrData" style="edgeLabel;html=1;align=center;verticalAlign=middle;resizable=0;points=[];" parent="P_-k0MPRVzmCdLMRWgzc-91" connectable="0" vertex="1">
          <mxGeometry relative="1" as="geometry">
            <mxPoint x="852" y="-300" as="offset" />
          </mxGeometry>
        </mxCell>
        <mxCell id="9XpVkmBKXh6i-lQlv5jV-15" value="[31:0]" style="edgeLabel;html=1;align=center;verticalAlign=middle;resizable=0;points=[];fontColor=#030303;" parent="P_-k0MPRVzmCdLMRWgzc-91" connectable="0" vertex="1">
          <mxGeometry x="-0.9737" y="-2" relative="1" as="geometry">
            <mxPoint as="offset" />
          </mxGeometry>
        </mxCell>
        <mxCell id="P_-k0MPRVzmCdLMRWgzc-92" value="" style="endArrow=classic;html=1;rounded=0;strokeColor=#73DBEB;strokeWidth=3;elbow=vertical;fillColor=#dae8fc;" parent="1" edge="1">
          <mxGeometry width="50" height="50" relative="1" as="geometry">
            <mxPoint x="324.99" y="-184.47" as="sourcePoint" />
            <mxPoint x="960" y="-184" as="targetPoint" />
          </mxGeometry>
        </mxCell>
        <mxCell id="P_-k0MPRVzmCdLMRWgzc-93" value="" style="endArrow=classic;html=1;rounded=0;strokeColor=#73DBEB;strokeWidth=3;elbow=vertical;fillColor=#dae8fc;" parent="1" edge="1">
          <mxGeometry width="50" height="50" relative="1" as="geometry">
            <mxPoint x="1044.99" y="-185.13999999999996" as="sourcePoint" />
            <mxPoint x="1444.99" y="-184.47" as="targetPoint" />
          </mxGeometry>
        </mxCell>
        <mxCell id="P_-k0MPRVzmCdLMRWgzc-96" value="" style="endArrow=classic;html=1;rounded=0;strokeColor=#B208CC;strokeWidth=2;elbow=vertical;edgeStyle=orthogonalEdgeStyle;fillColor=#e1d5e7;" parent="1" edge="1">
          <mxGeometry width="50" height="50" relative="1" as="geometry">
            <mxPoint x="630" y="-670" as="sourcePoint" />
            <mxPoint x="960" y="-420" as="targetPoint" />
            <Array as="points">
              <mxPoint x="630" y="-420" />
            </Array>
          </mxGeometry>
        </mxCell>
        <mxCell id="9XpVkmBKXh6i-lQlv5jV-13" value="[31:0]" style="edgeLabel;html=1;align=center;verticalAlign=middle;resizable=0;points=[];fontColor=#030303;" parent="P_-k0MPRVzmCdLMRWgzc-96" connectable="0" vertex="1">
          <mxGeometry x="0.8509" y="5" relative="1" as="geometry">
            <mxPoint as="offset" />
          </mxGeometry>
        </mxCell>
        <mxCell id="P_-k0MPRVzmCdLMRWgzc-97" value="" style="endArrow=classic;html=1;rounded=0;strokeColor=#000000;strokeWidth=1;elbow=vertical;" parent="1" edge="1">
          <mxGeometry width="50" height="50" relative="1" as="geometry">
            <mxPoint x="1040" y="-660" as="sourcePoint" />
            <mxPoint x="1090" y="-660" as="targetPoint" />
          </mxGeometry>
        </mxCell>
        <mxCell id="P_-k0MPRVzmCdLMRWgzc-99" value="" style="endArrow=classic;html=1;rounded=0;strokeColor=#000000;strokeWidth=3;elbow=vertical;edgeStyle=orthogonalEdgeStyle;exitX=1.029;exitY=0.2;exitDx=0;exitDy=0;exitPerimeter=0;" parent="1" source="c7biSZGZnNbLbAdj1jw6-147" edge="1">
          <mxGeometry width="50" height="50" relative="1" as="geometry">
            <mxPoint x="1304.99" y="-795" as="sourcePoint" />
            <mxPoint x="40" y="-495" as="targetPoint" />
            <Array as="points">
              <mxPoint x="1550" y="-795" />
              <mxPoint x="1550" y="230" />
              <mxPoint y="230" />
              <mxPoint y="-495" />
            </Array>
          </mxGeometry>
        </mxCell>
        <mxCell id="l_jW_QR7W9HBfsYtleDY-2" value="wb_RegWrite" style="edgeLabel;html=1;align=center;verticalAlign=middle;resizable=0;points=[];" parent="P_-k0MPRVzmCdLMRWgzc-99" connectable="0" vertex="1">
          <mxGeometry relative="1" as="geometry">
            <mxPoint x="621" y="-260" as="offset" />
          </mxGeometry>
        </mxCell>
        <mxCell id="P_-k0MPRVzmCdLMRWgzc-100" value="" style="endArrow=classic;html=1;rounded=0;strokeColor=#000000;strokeWidth=1;elbow=vertical;" parent="1" edge="1">
          <mxGeometry width="50" height="50" relative="1" as="geometry">
            <mxPoint x="1040" y="-810.1" as="sourcePoint" />
            <mxPoint x="1080" y="-810.1" as="targetPoint" />
          </mxGeometry>
        </mxCell>
        <mxCell id="P_-k0MPRVzmCdLMRWgzc-101" value="" style="group" parent="1" connectable="0" vertex="1">
          <mxGeometry x="1090" y="-830" width="30" height="70" as="geometry" />
        </mxCell>
        <mxCell id="P_-k0MPRVzmCdLMRWgzc-102" value="" style="shape=trapezoid;perimeter=trapezoidPerimeter;whiteSpace=wrap;html=1;fixedSize=1;rounded=0;shadow=0;glass=0;sketch=0;fontColor=#000000;strokeWidth=1;fillColor=#FFFFFF;size=20;rotation=90;" parent="P_-k0MPRVzmCdLMRWgzc-101" vertex="1">
          <mxGeometry x="-30" y="20" width="80" height="30" as="geometry" />
        </mxCell>
        <mxCell id="P_-k0MPRVzmCdLMRWgzc-103" value="1" style="text;html=1;align=center;verticalAlign=middle;resizable=0;points=[];autosize=1;strokeColor=none;fillColor=none;fontColor=#000000;" parent="P_-k0MPRVzmCdLMRWgzc-101" vertex="1">
          <mxGeometry y="40" width="20" height="20" as="geometry" />
        </mxCell>
        <mxCell id="P_-k0MPRVzmCdLMRWgzc-104" value="0" style="text;html=1;align=center;verticalAlign=middle;resizable=0;points=[];autosize=1;strokeColor=none;fillColor=none;fontColor=#000000;" parent="P_-k0MPRVzmCdLMRWgzc-101" vertex="1">
          <mxGeometry y="10" width="20" height="20" as="geometry" />
        </mxCell>
        <mxCell id="P_-k0MPRVzmCdLMRWgzc-111" value="" style="endArrow=classic;html=1;rounded=0;strokeColor=#000000;strokeWidth=1;elbow=vertical;entryX=0.75;entryY=1;entryDx=0;entryDy=0;" parent="1" target="P_-k0MPRVzmCdLMRWgzc-102" edge="1">
          <mxGeometry width="50" height="50" relative="1" as="geometry">
            <mxPoint x="1040" y="-775" as="sourcePoint" />
            <mxPoint x="1080" y="-775" as="targetPoint" />
          </mxGeometry>
        </mxCell>
        <mxCell id="P_-k0MPRVzmCdLMRWgzc-112" value="!Zero" style="edgeLabel;html=1;align=center;verticalAlign=middle;resizable=0;points=[];" parent="P_-k0MPRVzmCdLMRWgzc-111" connectable="0" vertex="1">
          <mxGeometry relative="1" as="geometry">
            <mxPoint x="-2" y="5" as="offset" />
          </mxGeometry>
        </mxCell>
        <mxCell id="P_-k0MPRVzmCdLMRWgzc-113" value="" style="endArrow=classic;html=1;rounded=0;strokeColor=#82b366;strokeWidth=2;elbow=vertical;edgeStyle=orthogonalEdgeStyle;fillColor=#d5e8d4;startArrow=none;exitX=0.5;exitY=0;exitDx=0;exitDy=0;" parent="1" source="P_-k0MPRVzmCdLMRWgzc-114" edge="1">
          <mxGeometry width="50" height="50" relative="1" as="geometry">
            <mxPoint x="1144.99" y="-705" as="sourcePoint" />
            <mxPoint x="1110" y="-770" as="targetPoint" />
            <Array as="points">
              <mxPoint x="1115" y="-770" />
            </Array>
          </mxGeometry>
        </mxCell>
        <mxCell id="P_-k0MPRVzmCdLMRWgzc-118" value="Movn" style="edgeLabel;html=1;align=center;verticalAlign=middle;resizable=0;points=[];" parent="P_-k0MPRVzmCdLMRWgzc-113" connectable="0" vertex="1">
          <mxGeometry relative="1" as="geometry">
            <mxPoint y="-17" as="offset" />
          </mxGeometry>
        </mxCell>
        <mxCell id="P_-k0MPRVzmCdLMRWgzc-115" value="" style="endArrow=none;html=1;rounded=0;strokeWidth=2;edgeStyle=orthogonalEdgeStyle;fillColor=#d5e8d4;strokeColor=#82b366;entryX=0;entryY=0.5;entryDx=0;entryDy=0;" parent="1" target="P_-k0MPRVzmCdLMRWgzc-114" edge="1">
          <mxGeometry width="50" height="50" relative="1" as="geometry">
            <mxPoint x="1044.99" y="-705" as="sourcePoint" />
            <mxPoint x="1094.99" y="-705" as="targetPoint" />
          </mxGeometry>
        </mxCell>
        <mxCell id="P_-k0MPRVzmCdLMRWgzc-114" value="" style="ellipse;whiteSpace=wrap;html=1;aspect=fixed;rounded=0;shadow=0;glass=0;sketch=0;fillColor=#8DC26E;strokeWidth=0;strokeColor=#82b366;" parent="1" vertex="1">
          <mxGeometry x="1110" y="-710" width="10" height="10" as="geometry" />
        </mxCell>
        <mxCell id="P_-k0MPRVzmCdLMRWgzc-119" value="" style="endArrow=classic;html=1;rounded=0;strokeColor=#000000;strokeWidth=1;elbow=vertical;" parent="1" edge="1">
          <mxGeometry width="50" height="50" relative="1" as="geometry">
            <mxPoint x="1124.99" y="-795" as="sourcePoint" />
            <mxPoint x="1440" y="-795" as="targetPoint" />
          </mxGeometry>
        </mxCell>
        <mxCell id="P_-k0MPRVzmCdLMRWgzc-121" value="" style="endArrow=classic;html=1;rounded=0;strokeColor=#000000;strokeWidth=1;elbow=vertical;" parent="1" edge="1">
          <mxGeometry width="50" height="50" relative="1" as="geometry">
            <mxPoint x="920" y="-670" as="sourcePoint" />
            <mxPoint x="960" y="-670" as="targetPoint" />
          </mxGeometry>
        </mxCell>
        <mxCell id="P_-k0MPRVzmCdLMRWgzc-122" value="" style="endArrow=classic;html=1;rounded=0;strokeColor=#82b366;strokeWidth=2;elbow=vertical;entryX=0.5;entryY=0;entryDx=0;entryDy=0;fillColor=#d5e8d4;edgeStyle=orthogonalEdgeStyle;" parent="1" target="c7biSZGZnNbLbAdj1jw6-229" edge="1">
          <mxGeometry width="50" height="50" relative="1" as="geometry">
            <mxPoint x="-70" y="-450" as="sourcePoint" />
            <mxPoint x="165.1" y="-420" as="targetPoint" />
          </mxGeometry>
        </mxCell>
        <mxCell id="P_-k0MPRVzmCdLMRWgzc-123" value="SignExt" style="edgeLabel;html=1;align=center;verticalAlign=middle;resizable=0;points=[];" parent="P_-k0MPRVzmCdLMRWgzc-122" connectable="0" vertex="1">
          <mxGeometry relative="1" as="geometry">
            <mxPoint x="95" y="25" as="offset" />
          </mxGeometry>
        </mxCell>
        <mxCell id="P_-k0MPRVzmCdLMRWgzc-154" value="&amp;nbsp;" style="endArrow=classic;html=1;rounded=0;strokeColor=#000000;strokeWidth=3;elbow=vertical;" parent="1" edge="1">
          <mxGeometry width="50" height="50" relative="1" as="geometry">
            <mxPoint x="1520" y="-900" as="sourcePoint" />
            <mxPoint x="1590" y="-900" as="targetPoint" />
            <Array as="points" />
          </mxGeometry>
        </mxCell>
        <mxCell id="P_-k0MPRVzmCdLMRWgzc-155" value="s_Halt" style="edgeLabel;html=1;align=center;verticalAlign=middle;resizable=0;points=[];" parent="P_-k0MPRVzmCdLMRWgzc-154" connectable="0" vertex="1">
          <mxGeometry relative="1" as="geometry">
            <mxPoint x="-5" as="offset" />
          </mxGeometry>
        </mxCell>
        <mxCell id="Eu2EeXl4kvYeIC2LtQuc-1" value="" style="endArrow=none;html=1;rounded=0;fontColor=#000000;strokeColor=#82b366;strokeWidth=2;elbow=vertical;endFill=0;shape=link;edgeStyle=orthogonalEdgeStyle;fillColor=#d5e8d4;entryX=0.5;entryY=1;entryDx=0;entryDy=0;startArrow=none;" parent="1" source="Eu2EeXl4kvYeIC2LtQuc-2" target="c7biSZGZnNbLbAdj1jw6-235" edge="1">
          <mxGeometry width="50" height="50" relative="1" as="geometry">
            <mxPoint x="-70" y="-450" as="sourcePoint" />
            <mxPoint x="-5.01000000005115" y="-755" as="targetPoint" />
            <Array as="points">
              <mxPoint x="-70" y="-450" />
              <mxPoint x="-70" y="-710" />
              <mxPoint x="-10" y="-710" />
            </Array>
          </mxGeometry>
        </mxCell>
        <mxCell id="Eu2EeXl4kvYeIC2LtQuc-2" value="" style="ellipse;whiteSpace=wrap;html=1;aspect=fixed;rounded=0;shadow=0;glass=0;sketch=0;fillColor=#82B366;strokeWidth=0;strokeColor=#82b366;" parent="1" vertex="1">
          <mxGeometry x="-80" y="-450" width="10" height="10" as="geometry" />
        </mxCell>
        <mxCell id="Eu2EeXl4kvYeIC2LtQuc-3" value="" style="endArrow=none;html=1;rounded=0;fontColor=#000000;strokeColor=#82b366;strokeWidth=2;elbow=vertical;endFill=0;shape=link;edgeStyle=orthogonalEdgeStyle;fillColor=#d5e8d4;entryX=0.5;entryY=1;entryDx=0;entryDy=0;" parent="1" target="Eu2EeXl4kvYeIC2LtQuc-2" edge="1">
          <mxGeometry width="50" height="50" relative="1" as="geometry">
            <mxPoint x="-70" y="-450" as="sourcePoint" />
            <mxPoint x="-10.009999999999991" y="-760" as="targetPoint" />
            <Array as="points" />
          </mxGeometry>
        </mxCell>
        <mxCell id="xT7GirZl_erP_Nx4-y1J-33" value="" style="endArrow=classic;html=1;rounded=0;strokeWidth=2;entryX=0.5;entryY=0;entryDx=0;entryDy=0;edgeStyle=orthogonalEdgeStyle;exitX=0.5;exitY=1;exitDx=0;exitDy=0;" parent="1" source="xT7GirZl_erP_Nx4-y1J-36" target="c7biSZGZnNbLbAdj1jw6-1" edge="1">
          <mxGeometry width="50" height="50" relative="1" as="geometry">
            <mxPoint x="-50" y="-1318" as="sourcePoint" />
            <mxPoint x="140" y="-1150" as="targetPoint" />
            <Array as="points">
              <mxPoint x="-70" y="-1090" />
              <mxPoint x="-240" y="-1090" />
            </Array>
          </mxGeometry>
        </mxCell>
        <mxCell id="OMZVadHaSO-6CGIQP7CG-8" value="&lt;font style=&quot;font-size: 12px&quot;&gt;ifid_We&lt;/font&gt;" style="edgeLabel;html=1;align=center;verticalAlign=middle;resizable=0;points=[];fontSize=19;labelBackgroundColor=none;" parent="xT7GirZl_erP_Nx4-y1J-33" connectable="0" vertex="1">
          <mxGeometry x="0.1701" relative="1" as="geometry">
            <mxPoint x="-35" y="-10" as="offset" />
          </mxGeometry>
        </mxCell>
        <mxCell id="xT7GirZl_erP_Nx4-y1J-34" value="" style="endArrow=classic;html=1;rounded=0;strokeWidth=2;edgeStyle=orthogonalEdgeStyle;entryX=0.5;entryY=0;entryDx=0;entryDy=0;exitX=-0.11;exitY=0.537;exitDx=0;exitDy=0;exitPerimeter=0;" parent="1" source="xT7GirZl_erP_Nx4-y1J-62" target="c7biSZGZnNbLbAdj1jw6-158" edge="1">
          <mxGeometry width="50" height="50" relative="1" as="geometry">
            <mxPoint x="-130" y="-1360" as="sourcePoint" />
            <mxPoint x="-330" y="-1230" as="targetPoint" />
            <Array as="points">
              <mxPoint x="-190" y="-1129" />
              <mxPoint x="-550" y="-1130" />
            </Array>
          </mxGeometry>
        </mxCell>
        <mxCell id="xT7GirZl_erP_Nx4-y1J-124" value="PCWe" style="edgeLabel;html=1;align=center;verticalAlign=middle;resizable=0;points=[];" parent="xT7GirZl_erP_Nx4-y1J-34" connectable="0" vertex="1">
          <mxGeometry x="0.8758" relative="1" as="geometry">
            <mxPoint y="1" as="offset" />
          </mxGeometry>
        </mxCell>
        <mxCell id="xT7GirZl_erP_Nx4-y1J-35" value="" style="endArrow=classic;html=1;rounded=0;strokeWidth=2;exitX=0.5;exitY=1;exitDx=0;exitDy=0;entryX=0.5;entryY=0;entryDx=0;entryDy=0;edgeStyle=orthogonalEdgeStyle;" parent="1" source="xT7GirZl_erP_Nx4-y1J-36" target="c7biSZGZnNbLbAdj1jw6-77" edge="1">
          <mxGeometry width="50" height="50" relative="1" as="geometry">
            <mxPoint x="80.0300000000002" y="-1320" as="sourcePoint" />
            <mxPoint x="290" y="-1110" as="targetPoint" />
            <Array as="points">
              <mxPoint x="-70" y="-1090" />
              <mxPoint x="280" y="-1090" />
            </Array>
          </mxGeometry>
        </mxCell>
        <mxCell id="xT7GirZl_erP_Nx4-y1J-36" value="Hazard Detection" style="swimlane;rounded=0;shadow=0;glass=0;sketch=0;fontColor=#F0F5F7;strokeWidth=1;fillColor=#25607D;startSize=23;" parent="1" vertex="1">
          <mxGeometry x="-150" y="-1310" width="160" height="199" as="geometry" />
        </mxCell>
        <mxCell id="xT7GirZl_erP_Nx4-y1J-38" value="ex_Rt" style="text;html=1;align=right;verticalAlign=middle;resizable=0;points=[];autosize=1;strokeColor=none;fillColor=none;fontColor=#000000;" parent="xT7GirZl_erP_Nx4-y1J-36" vertex="1">
          <mxGeometry x="105" y="30" width="50" height="20" as="geometry" />
        </mxCell>
        <mxCell id="xT7GirZl_erP_Nx4-y1J-39" value="&lt;font color=&quot;#000000&quot;&gt;id_Rs&lt;/font&gt;" style="text;html=1;align=left;verticalAlign=middle;resizable=0;points=[];autosize=1;strokeColor=none;fillColor=none;fontColor=#F0F5F7;" parent="xT7GirZl_erP_Nx4-y1J-36" vertex="1">
          <mxGeometry x="5" y="30" width="50" height="20" as="geometry" />
        </mxCell>
        <mxCell id="xT7GirZl_erP_Nx4-y1J-45" value="&lt;font color=&quot;#000000&quot;&gt;id_Rt&lt;/font&gt;" style="text;html=1;align=left;verticalAlign=middle;resizable=0;points=[];autosize=1;strokeColor=none;fillColor=none;fontColor=#F0F5F7;" parent="xT7GirZl_erP_Nx4-y1J-36" vertex="1">
          <mxGeometry x="5" y="50" width="40" height="20" as="geometry" />
        </mxCell>
        <mxCell id="xT7GirZl_erP_Nx4-y1J-46" value="&lt;font color=&quot;#000000&quot;&gt;id_Jump&lt;/font&gt;" style="text;html=1;align=left;verticalAlign=middle;resizable=0;points=[];autosize=1;strokeColor=none;fillColor=none;fontColor=#F0F5F7;" parent="xT7GirZl_erP_Nx4-y1J-36" vertex="1">
          <mxGeometry x="5" y="70" width="60" height="20" as="geometry" />
        </mxCell>
        <mxCell id="xT7GirZl_erP_Nx4-y1J-47" value="&lt;font color=&quot;#000000&quot;&gt;id_JumpReg&lt;/font&gt;" style="text;html=1;align=left;verticalAlign=middle;resizable=0;points=[];autosize=1;strokeColor=none;fillColor=none;fontColor=#F0F5F7;" parent="xT7GirZl_erP_Nx4-y1J-36" vertex="1">
          <mxGeometry x="5" y="90" width="80" height="20" as="geometry" />
        </mxCell>
        <mxCell id="xT7GirZl_erP_Nx4-y1J-48" value="&lt;font color=&quot;#000000&quot;&gt;id_Branch&lt;/font&gt;" style="text;html=1;align=left;verticalAlign=middle;resizable=0;points=[];autosize=1;strokeColor=none;fillColor=none;fontColor=#F0F5F7;" parent="xT7GirZl_erP_Nx4-y1J-36" vertex="1">
          <mxGeometry x="5" y="110" width="70" height="20" as="geometry" />
        </mxCell>
        <mxCell id="xT7GirZl_erP_Nx4-y1J-49" value="&lt;font color=&quot;#000000&quot;&gt;id_Jal&lt;/font&gt;" style="text;html=1;align=left;verticalAlign=middle;resizable=0;points=[];autosize=1;strokeColor=none;fillColor=none;fontColor=#F0F5F7;" parent="xT7GirZl_erP_Nx4-y1J-36" vertex="1">
          <mxGeometry x="5" y="130" width="50" height="20" as="geometry" />
        </mxCell>
        <mxCell id="xT7GirZl_erP_Nx4-y1J-51" value="ex_Rd" style="text;html=1;align=right;verticalAlign=middle;resizable=0;points=[];autosize=1;strokeColor=none;fillColor=none;fontColor=#000000;" parent="xT7GirZl_erP_Nx4-y1J-36" vertex="1">
          <mxGeometry x="105" y="50" width="50" height="20" as="geometry" />
        </mxCell>
        <mxCell id="xT7GirZl_erP_Nx4-y1J-52" value="ex_RegWr" style="text;html=1;align=right;verticalAlign=middle;resizable=0;points=[];autosize=1;strokeColor=none;fillColor=none;fontColor=#000000;" parent="xT7GirZl_erP_Nx4-y1J-36" vertex="1">
          <mxGeometry x="85" y="70" width="70" height="20" as="geometry" />
        </mxCell>
        <mxCell id="xT7GirZl_erP_Nx4-y1J-53" value="ex_MemRead" style="text;html=1;align=right;verticalAlign=middle;resizable=0;points=[];autosize=1;strokeColor=none;fillColor=none;fontColor=#000000;" parent="xT7GirZl_erP_Nx4-y1J-36" vertex="1">
          <mxGeometry x="65" y="90" width="90" height="20" as="geometry" />
        </mxCell>
        <mxCell id="xT7GirZl_erP_Nx4-y1J-58" value="mem_Rd" style="text;html=1;align=right;verticalAlign=middle;resizable=0;points=[];autosize=1;strokeColor=none;fillColor=none;fontColor=#000000;" parent="xT7GirZl_erP_Nx4-y1J-36" vertex="1">
          <mxGeometry x="95" y="110" width="60" height="20" as="geometry" />
        </mxCell>
        <mxCell id="xT7GirZl_erP_Nx4-y1J-59" value="mem_RegWr" style="text;html=1;align=right;verticalAlign=middle;resizable=0;points=[];autosize=1;strokeColor=none;fillColor=none;fontColor=#000000;" parent="xT7GirZl_erP_Nx4-y1J-36" vertex="1">
          <mxGeometry x="65" y="130" width="90" height="20" as="geometry" />
        </mxCell>
        <mxCell id="xT7GirZl_erP_Nx4-y1J-61" value="wb_RegWr" style="text;html=1;align=right;verticalAlign=middle;resizable=0;points=[];autosize=1;strokeColor=none;fillColor=none;fontColor=#000000;" parent="xT7GirZl_erP_Nx4-y1J-36" vertex="1">
          <mxGeometry x="85" y="170" width="70" height="20" as="geometry" />
        </mxCell>
        <mxCell id="xT7GirZl_erP_Nx4-y1J-60" value="wb_Rd" style="text;html=1;align=right;verticalAlign=middle;resizable=0;points=[];autosize=1;strokeColor=none;fillColor=none;fontColor=#000000;" parent="xT7GirZl_erP_Nx4-y1J-36" vertex="1">
          <mxGeometry x="105" y="150" width="50" height="20" as="geometry" />
        </mxCell>
        <mxCell id="xT7GirZl_erP_Nx4-y1J-62" value="&lt;font color=&quot;#000000&quot;&gt;PCWe&lt;/font&gt;" style="text;html=1;align=left;verticalAlign=middle;resizable=0;points=[];autosize=1;strokeColor=none;fillColor=none;fontColor=#F0F5F7;" parent="xT7GirZl_erP_Nx4-y1J-36" vertex="1">
          <mxGeometry x="5" y="170" width="50" height="20" as="geometry" />
        </mxCell>
        <mxCell id="xT7GirZl_erP_Nx4-y1J-71" value="FWD" style="swimlane;rounded=0;shadow=0;glass=0;sketch=0;fontColor=#F0F5F7;strokeWidth=1;fillColor=#25607D;startSize=23;" parent="1" vertex="1">
          <mxGeometry x="580" y="-60" width="240" height="240" as="geometry" />
        </mxCell>
        <mxCell id="xT7GirZl_erP_Nx4-y1J-72" value="ex_Rt" style="text;html=1;align=right;verticalAlign=middle;resizable=0;points=[];autosize=1;strokeColor=none;fillColor=none;fontColor=#000000;" parent="xT7GirZl_erP_Nx4-y1J-71" vertex="1">
          <mxGeometry y="50" width="50" height="20" as="geometry" />
        </mxCell>
        <mxCell id="xT7GirZl_erP_Nx4-y1J-73" value="&lt;font color=&quot;#000000&quot;&gt;fwd_AluA&lt;/font&gt;" style="text;html=1;align=left;verticalAlign=middle;resizable=0;points=[];autosize=1;strokeColor=none;fillColor=none;fontColor=#F0F5F7;" parent="xT7GirZl_erP_Nx4-y1J-71" vertex="1">
          <mxGeometry x="10" y="120" width="70" height="20" as="geometry" />
        </mxCell>
        <mxCell id="xT7GirZl_erP_Nx4-y1J-74" value="&lt;font color=&quot;#000000&quot;&gt;fwd_AluB&lt;/font&gt;" style="text;html=1;align=left;verticalAlign=middle;resizable=0;points=[];autosize=1;strokeColor=none;fillColor=none;fontColor=#F0F5F7;" parent="xT7GirZl_erP_Nx4-y1J-71" vertex="1">
          <mxGeometry x="10" y="150" width="70" height="20" as="geometry" />
        </mxCell>
        <mxCell id="xT7GirZl_erP_Nx4-y1J-79" value="ex_Rs" style="text;html=1;align=right;verticalAlign=middle;resizable=0;points=[];autosize=1;strokeColor=none;fillColor=none;fontColor=#000000;" parent="xT7GirZl_erP_Nx4-y1J-71" vertex="1">
          <mxGeometry y="30" width="50" height="20" as="geometry" />
        </mxCell>
        <mxCell id="xT7GirZl_erP_Nx4-y1J-82" value="mem_Rd" style="text;html=1;align=right;verticalAlign=middle;resizable=0;points=[];autosize=1;strokeColor=none;fillColor=none;fontColor=#000000;" parent="xT7GirZl_erP_Nx4-y1J-71" vertex="1">
          <mxGeometry x="165" y="60" width="60" height="20" as="geometry" />
        </mxCell>
        <mxCell id="xT7GirZl_erP_Nx4-y1J-83" value="mem_RegWr" style="text;html=1;align=right;verticalAlign=middle;resizable=0;points=[];autosize=1;strokeColor=none;fillColor=none;fontColor=#000000;" parent="xT7GirZl_erP_Nx4-y1J-71" vertex="1">
          <mxGeometry x="140" y="30" width="90" height="20" as="geometry" />
        </mxCell>
        <mxCell id="xT7GirZl_erP_Nx4-y1J-84" value="wb_RegWr" style="text;html=1;align=right;verticalAlign=middle;resizable=0;points=[];autosize=1;strokeColor=none;fillColor=none;fontColor=#000000;" parent="xT7GirZl_erP_Nx4-y1J-71" vertex="1">
          <mxGeometry x="160" y="140" width="70" height="20" as="geometry" />
        </mxCell>
        <mxCell id="xT7GirZl_erP_Nx4-y1J-85" value="wb_Rd" style="text;html=1;align=right;verticalAlign=middle;resizable=0;points=[];autosize=1;strokeColor=none;fillColor=none;fontColor=#000000;" parent="xT7GirZl_erP_Nx4-y1J-71" vertex="1">
          <mxGeometry x="180" y="110" width="50" height="20" as="geometry" />
        </mxCell>
        <mxCell id="TEfOjTBCNKv5D-hut4I1-2" value="&lt;font color=&quot;#000000&quot;&gt;fwd_ReadRt&lt;/font&gt;" style="text;html=1;align=left;verticalAlign=middle;resizable=0;points=[];autosize=1;strokeColor=none;fillColor=none;fontColor=#F0F5F7;" parent="xT7GirZl_erP_Nx4-y1J-71" vertex="1">
          <mxGeometry x="10" y="180" width="80" height="20" as="geometry" />
        </mxCell>
        <mxCell id="TEfOjTBCNKv5D-hut4I1-3" value="&lt;font color=&quot;#000000&quot;&gt;fwd_ReadRs&lt;/font&gt;" style="text;html=1;align=left;verticalAlign=middle;resizable=0;points=[];autosize=1;strokeColor=none;fillColor=none;fontColor=#F0F5F7;" parent="xT7GirZl_erP_Nx4-y1J-71" vertex="1">
          <mxGeometry x="10" y="210" width="80" height="20" as="geometry" />
        </mxCell>
        <mxCell id="xT7GirZl_erP_Nx4-y1J-94" value="" style="group" parent="1" connectable="0" vertex="1">
          <mxGeometry x="510" y="-740" width="40" height="100" as="geometry" />
        </mxCell>
        <mxCell id="xT7GirZl_erP_Nx4-y1J-95" value="" style="shape=trapezoid;perimeter=trapezoidPerimeter;whiteSpace=wrap;html=1;fixedSize=1;rounded=0;shadow=0;glass=0;sketch=0;fontColor=#000000;strokeWidth=1;fillColor=#FFFFFF;size=20;rotation=90;" parent="xT7GirZl_erP_Nx4-y1J-94" vertex="1">
          <mxGeometry x="-30" y="30" width="100" height="40" as="geometry" />
        </mxCell>
        <mxCell id="xT7GirZl_erP_Nx4-y1J-96" value="1" style="text;html=1;align=center;verticalAlign=middle;resizable=0;points=[];autosize=1;strokeColor=none;fillColor=none;fontColor=#000000;" parent="xT7GirZl_erP_Nx4-y1J-94" vertex="1">
          <mxGeometry x="10" y="40" width="20" height="20" as="geometry" />
        </mxCell>
        <mxCell id="xT7GirZl_erP_Nx4-y1J-97" value="0" style="text;html=1;align=center;verticalAlign=middle;resizable=0;points=[];autosize=1;strokeColor=none;fillColor=none;fontColor=#000000;" parent="xT7GirZl_erP_Nx4-y1J-94" vertex="1">
          <mxGeometry x="10" y="20" width="20" height="20" as="geometry" />
        </mxCell>
        <mxCell id="xT7GirZl_erP_Nx4-y1J-98" value="2" style="text;html=1;align=center;verticalAlign=middle;resizable=0;points=[];autosize=1;strokeColor=none;fillColor=none;fontColor=#000000;" parent="xT7GirZl_erP_Nx4-y1J-94" vertex="1">
          <mxGeometry x="10" y="60" width="20" height="20" as="geometry" />
        </mxCell>
        <mxCell id="xT7GirZl_erP_Nx4-y1J-99" value="" style="group" parent="1" connectable="0" vertex="1">
          <mxGeometry x="510" y="-630" width="40" height="100" as="geometry" />
        </mxCell>
        <mxCell id="xT7GirZl_erP_Nx4-y1J-100" value="" style="shape=trapezoid;perimeter=trapezoidPerimeter;whiteSpace=wrap;html=1;fixedSize=1;rounded=0;shadow=0;glass=0;sketch=0;fontColor=#000000;strokeWidth=1;fillColor=#FFFFFF;size=20;rotation=90;" parent="xT7GirZl_erP_Nx4-y1J-99" vertex="1">
          <mxGeometry x="-30" y="30" width="100" height="40" as="geometry" />
        </mxCell>
        <mxCell id="xT7GirZl_erP_Nx4-y1J-101" value="1" style="text;html=1;align=center;verticalAlign=middle;resizable=0;points=[];autosize=1;strokeColor=none;fillColor=none;fontColor=#000000;" parent="xT7GirZl_erP_Nx4-y1J-99" vertex="1">
          <mxGeometry x="10" y="40" width="20" height="20" as="geometry" />
        </mxCell>
        <mxCell id="xT7GirZl_erP_Nx4-y1J-102" value="0" style="text;html=1;align=center;verticalAlign=middle;resizable=0;points=[];autosize=1;strokeColor=none;fillColor=none;fontColor=#000000;" parent="xT7GirZl_erP_Nx4-y1J-99" vertex="1">
          <mxGeometry x="10" y="20" width="20" height="20" as="geometry" />
        </mxCell>
        <mxCell id="xT7GirZl_erP_Nx4-y1J-103" value="2" style="text;html=1;align=center;verticalAlign=middle;resizable=0;points=[];autosize=1;strokeColor=none;fillColor=none;fontColor=#000000;" parent="xT7GirZl_erP_Nx4-y1J-99" vertex="1">
          <mxGeometry x="10" y="60" width="20" height="20" as="geometry" />
        </mxCell>
        <mxCell id="xT7GirZl_erP_Nx4-y1J-104" value="" style="endArrow=classic;html=1;rounded=0;strokeWidth=2;entryX=0.5;entryY=1;entryDx=0;entryDy=0;edgeStyle=orthogonalEdgeStyle;fillColor=#0050ef;strokeColor=#001DBC;" parent="1" target="xT7GirZl_erP_Nx4-y1J-95" edge="1">
          <mxGeometry width="50" height="50" relative="1" as="geometry">
            <mxPoint x="1170" y="-630" as="sourcePoint" />
            <mxPoint x="730" y="-640" as="targetPoint" />
            <Array as="points">
              <mxPoint x="1170" y="-70" />
              <mxPoint x="420" y="-70" />
              <mxPoint x="420" y="-690" />
            </Array>
          </mxGeometry>
        </mxCell>
        <mxCell id="xT7GirZl_erP_Nx4-y1J-109" value="mem_AluRes(Aftermovn)" style="edgeLabel;html=1;align=center;verticalAlign=middle;resizable=0;points=[];" parent="xT7GirZl_erP_Nx4-y1J-104" connectable="0" vertex="1">
          <mxGeometry x="0.7476" y="2" relative="1" as="geometry">
            <mxPoint x="182" y="-60" as="offset" />
          </mxGeometry>
        </mxCell>
        <mxCell id="xT7GirZl_erP_Nx4-y1J-112" value="mem_AluRes(aftermovn)" style="edgeLabel;html=1;align=center;verticalAlign=middle;resizable=0;points=[];" parent="xT7GirZl_erP_Nx4-y1J-104" connectable="0" vertex="1">
          <mxGeometry x="0.9686" y="1" relative="1" as="geometry">
            <mxPoint x="122" as="offset" />
          </mxGeometry>
        </mxCell>
        <mxCell id="xT7GirZl_erP_Nx4-y1J-105" value="" style="endArrow=classic;html=1;rounded=0;strokeWidth=2;entryX=0.5;entryY=1;entryDx=0;entryDy=0;fillColor=#0050ef;strokeColor=#001DBC;" parent="1" target="xT7GirZl_erP_Nx4-y1J-100" edge="1">
          <mxGeometry width="50" height="50" relative="1" as="geometry">
            <mxPoint x="420" y="-580" as="sourcePoint" />
            <mxPoint x="720" y="-520" as="targetPoint" />
          </mxGeometry>
        </mxCell>
        <mxCell id="9XpVkmBKXh6i-lQlv5jV-12" value="[31:0]" style="edgeLabel;html=1;align=center;verticalAlign=middle;resizable=0;points=[];fontColor=#030303;" parent="xT7GirZl_erP_Nx4-y1J-105" connectable="0" vertex="1">
          <mxGeometry x="0.2889" relative="1" as="geometry">
            <mxPoint as="offset" />
          </mxGeometry>
        </mxCell>
        <mxCell id="xT7GirZl_erP_Nx4-y1J-106" value="" style="endArrow=classic;html=1;rounded=0;strokeWidth=2;entryX=0.75;entryY=1;entryDx=0;entryDy=0;fillColor=#a0522d;strokeColor=#F50000;" parent="1" target="xT7GirZl_erP_Nx4-y1J-100" edge="1">
          <mxGeometry width="50" height="50" relative="1" as="geometry">
            <mxPoint x="460" y="-555" as="sourcePoint" />
            <mxPoint x="500" y="-560" as="targetPoint" />
          </mxGeometry>
        </mxCell>
        <mxCell id="xT7GirZl_erP_Nx4-y1J-107" value="" style="endArrow=classic;html=1;rounded=0;strokeWidth=2;edgeStyle=orthogonalEdgeStyle;fillColor=#e51400;strokeColor=#F50000;entryX=0.75;entryY=1;entryDx=0;entryDy=0;" parent="1" target="xT7GirZl_erP_Nx4-y1J-95" edge="1">
          <mxGeometry width="50" height="50" relative="1" as="geometry">
            <mxPoint x="460" y="280" as="sourcePoint" />
            <mxPoint x="500" y="-670" as="targetPoint" />
            <Array as="points">
              <mxPoint x="460" y="-665" />
            </Array>
          </mxGeometry>
        </mxCell>
        <mxCell id="xT7GirZl_erP_Nx4-y1J-108" value="wb_RegWrData" style="edgeLabel;html=1;align=center;verticalAlign=middle;resizable=0;points=[];" parent="xT7GirZl_erP_Nx4-y1J-107" connectable="0" vertex="1">
          <mxGeometry x="0.5914" y="3" relative="1" as="geometry">
            <mxPoint x="123" y="-48" as="offset" />
          </mxGeometry>
        </mxCell>
        <mxCell id="xT7GirZl_erP_Nx4-y1J-113" value="wb_RegWrData" style="edgeLabel;html=1;align=center;verticalAlign=middle;resizable=0;points=[];" parent="xT7GirZl_erP_Nx4-y1J-107" connectable="0" vertex="1">
          <mxGeometry x="0.9265" y="2" relative="1" as="geometry">
            <mxPoint x="107" as="offset" />
          </mxGeometry>
        </mxCell>
        <mxCell id="9XpVkmBKXh6i-lQlv5jV-11" value="[31:0]" style="edgeLabel;html=1;align=center;verticalAlign=middle;resizable=0;points=[];fontColor=#030303;" parent="xT7GirZl_erP_Nx4-y1J-107" connectable="0" vertex="1">
          <mxGeometry x="0.8472" relative="1" as="geometry">
            <mxPoint y="-51" as="offset" />
          </mxGeometry>
        </mxCell>
        <mxCell id="c7biSZGZnNbLbAdj1jw6-269" value="&amp;nbsp;" style="endArrow=classic;html=1;rounded=0;fontColor=#000000;strokeColor=#B208CC;strokeWidth=2;elbow=vertical;startArrow=none;fillColor=#6a00ff;entryX=0.25;entryY=1;entryDx=0;entryDy=0;edgeStyle=orthogonalEdgeStyle;" parent="1" target="xT7GirZl_erP_Nx4-y1J-95" edge="1">
          <mxGeometry x="-0.3185" y="-10" width="50" height="50" relative="1" as="geometry">
            <mxPoint x="320" y="-670" as="sourcePoint" />
            <mxPoint x="400" y="-670" as="targetPoint" />
            <Array as="points">
              <mxPoint x="370" y="-670" />
              <mxPoint x="370" y="-715" />
            </Array>
            <mxPoint as="offset" />
          </mxGeometry>
        </mxCell>
        <mxCell id="xT7GirZl_erP_Nx4-y1J-111" value="ex_ReadRs" style="edgeLabel;html=1;align=center;verticalAlign=middle;resizable=0;points=[];" parent="c7biSZGZnNbLbAdj1jw6-269" connectable="0" vertex="1">
          <mxGeometry x="0.7767" y="2" relative="1" as="geometry">
            <mxPoint x="86" y="7" as="offset" />
          </mxGeometry>
        </mxCell>
        <mxCell id="c7biSZGZnNbLbAdj1jw6-270" value="" style="endArrow=classic;html=1;rounded=0;fontColor=#000000;strokeColor=#F27100;strokeWidth=2;elbow=vertical;fillColor=#fa6800;entryX=0.192;entryY=1.083;entryDx=0;entryDy=0;entryPerimeter=0;" parent="1" target="xT7GirZl_erP_Nx4-y1J-100" edge="1">
          <mxGeometry width="50" height="50" relative="1" as="geometry">
            <mxPoint x="320" y="-610" as="sourcePoint" />
            <mxPoint x="420" y="-610" as="targetPoint" />
          </mxGeometry>
        </mxCell>
        <mxCell id="xT7GirZl_erP_Nx4-y1J-110" value="ex_ReadRt" style="edgeLabel;html=1;align=center;verticalAlign=middle;resizable=0;points=[];" parent="c7biSZGZnNbLbAdj1jw6-270" connectable="0" vertex="1">
          <mxGeometry x="0.7415" relative="1" as="geometry">
            <mxPoint x="88" y="6" as="offset" />
          </mxGeometry>
        </mxCell>
        <mxCell id="xT7GirZl_erP_Nx4-y1J-114" value="" style="endArrow=classic;html=1;rounded=0;strokeWidth=2;entryX=0.25;entryY=1;entryDx=0;entryDy=0;strokeColor=#F27100;" parent="1" target="c7biSZGZnNbLbAdj1jw6-275" edge="1">
          <mxGeometry width="50" height="50" relative="1" as="geometry">
            <mxPoint x="570" y="-610" as="sourcePoint" />
            <mxPoint x="820" y="-690" as="targetPoint" />
          </mxGeometry>
        </mxCell>
        <mxCell id="xT7GirZl_erP_Nx4-y1J-115" value="" style="endArrow=classic;html=1;rounded=0;strokeWidth=2;entryX=0.25;entryY=1;entryDx=0;entryDy=0;strokeColor=#B208CC;" parent="1" edge="1">
          <mxGeometry width="50" height="50" relative="1" as="geometry">
            <mxPoint x="560" y="-670" as="sourcePoint" />
            <mxPoint x="760" y="-670" as="targetPoint" />
          </mxGeometry>
        </mxCell>
        <mxCell id="xT7GirZl_erP_Nx4-y1J-116" value="" style="endArrow=classic;html=1;rounded=0;strokeWidth=2;entryX=-0.056;entryY=0.716;entryDx=0;entryDy=0;entryPerimeter=0;edgeStyle=orthogonalEdgeStyle;fillColor=#f8cecc;strokeColor=#F27100;" parent="1" target="xT7GirZl_erP_Nx4-y1J-72" edge="1">
          <mxGeometry width="50" height="50" relative="1" as="geometry">
            <mxPoint x="360" y="-610" as="sourcePoint" />
            <mxPoint x="780" y="-250" as="targetPoint" />
            <Array as="points">
              <mxPoint x="360" y="4" />
            </Array>
          </mxGeometry>
        </mxCell>
        <mxCell id="xT7GirZl_erP_Nx4-y1J-117" value="" style="endArrow=classic;html=1;rounded=0;strokeWidth=2;entryX=-0.06;entryY=0.448;entryDx=0;entryDy=0;entryPerimeter=0;edgeStyle=orthogonalEdgeStyle;fillColor=#e1d5e7;strokeColor=#B208CC;" parent="1" target="xT7GirZl_erP_Nx4-y1J-79" edge="1">
          <mxGeometry width="50" height="50" relative="1" as="geometry">
            <mxPoint x="370" y="-610" as="sourcePoint" />
            <mxPoint x="730" y="-270" as="targetPoint" />
            <Array as="points">
              <mxPoint x="370" y="-21" />
            </Array>
          </mxGeometry>
        </mxCell>
        <mxCell id="xT7GirZl_erP_Nx4-y1J-127" value="" style="endArrow=classic;html=1;rounded=0;strokeColor=#2D7600;strokeWidth=2;edgeStyle=orthogonalEdgeStyle;fillColor=#60a917;" parent="1" edge="1">
          <mxGeometry width="50" height="50" relative="1" as="geometry">
            <mxPoint x="580" y="90" as="sourcePoint" />
            <mxPoint x="530" y="-540" as="targetPoint" />
          </mxGeometry>
        </mxCell>
        <mxCell id="TEfOjTBCNKv5D-hut4I1-1" value="MUX for ReadRs+ReadRT&lt;br&gt;for register bypass" style="text;html=1;align=center;verticalAlign=middle;resizable=0;points=[];autosize=1;strokeColor=none;fillColor=none;" parent="1" vertex="1">
          <mxGeometry x="130" y="-595" width="160" height="30" as="geometry" />
        </mxCell>
        <mxCell id="xT7GirZl_erP_Nx4-y1J-63" value="&lt;font color=&quot;#000000&quot;&gt;ifid_We&lt;/font&gt;" style="text;html=1;align=left;verticalAlign=middle;resizable=0;points=[];autosize=1;strokeColor=none;fillColor=none;fontColor=#F0F5F7;" parent="1" vertex="1">
          <mxGeometry x="-100" y="-1300" width="60" height="20" as="geometry" />
        </mxCell>
        <mxCell id="xT7GirZl_erP_Nx4-y1J-64" value="&lt;font color=&quot;#000000&quot;&gt;ifid_Flush&lt;/font&gt;" style="text;html=1;align=left;verticalAlign=middle;resizable=0;points=[];autosize=1;strokeColor=none;fillColor=none;fontColor=#F0F5F7;" parent="1" vertex="1">
          <mxGeometry x="-105" y="-1280" width="70" height="20" as="geometry" />
        </mxCell>
        <mxCell id="xT7GirZl_erP_Nx4-y1J-67" value="&lt;font color=&quot;#000000&quot;&gt;idex_We&lt;/font&gt;" style="text;html=1;align=right;verticalAlign=middle;resizable=0;points=[];autosize=1;strokeColor=none;fillColor=none;fontColor=#F0F5F7;" parent="1" vertex="1">
          <mxGeometry x="245" y="-1140" width="60" height="20" as="geometry" />
        </mxCell>
        <mxCell id="xT7GirZl_erP_Nx4-y1J-68" value="&lt;font color=&quot;#000000&quot;&gt;idex_Flush&lt;/font&gt;" style="text;html=1;align=right;verticalAlign=middle;resizable=0;points=[];autosize=1;strokeColor=none;fillColor=none;fontColor=#F0F5F7;" parent="1" vertex="1">
          <mxGeometry x="245" y="-1120" width="70" height="20" as="geometry" />
        </mxCell>
        <mxCell id="OMZVadHaSO-6CGIQP7CG-3" value="S_Ovfl" style="endArrow=classic;html=1;rounded=0;strokeColor=#000000;strokeWidth=3;elbow=vertical;" parent="1" edge="1">
          <mxGeometry width="50" height="50" relative="1" as="geometry">
            <mxPoint x="1520" y="-880" as="sourcePoint" />
            <mxPoint x="1590" y="-880" as="targetPoint" />
            <Array as="points" />
          </mxGeometry>
        </mxCell>
        <mxCell id="OMZVadHaSO-6CGIQP7CG-7" value="&lt;b&gt;&lt;font style=&quot;font-size: 19px&quot;&gt;=&lt;/font&gt;&lt;/b&gt;" style="ellipse;whiteSpace=wrap;html=1;" parent="1" vertex="1">
          <mxGeometry x="170" y="-655" width="40" height="30" as="geometry" />
        </mxCell>
        <mxCell id="OMZVadHaSO-6CGIQP7CG-9" value="&lt;font style=&quot;font-size: 12px&quot;&gt;ifid_Flush&lt;/font&gt;" style="edgeLabel;html=1;align=center;verticalAlign=middle;resizable=0;points=[];fontSize=19;labelBackgroundColor=none;" parent="1" connectable="0" vertex="1">
          <mxGeometry x="-215" y="-1090" as="geometry">
            <mxPoint x="36" y="-13" as="offset" />
          </mxGeometry>
        </mxCell>
      </root>
    </mxGraphModel>
  </diagram>
</mxfile>
